<?xml version="1.0" encoding="UTF-8"?>
<svg id="_レイヤー_1" data-name="レイヤー 1" xmlns="http://www.w3.org/2000/svg" viewBox="0 0 800 250">
  <defs>
    <style>
      .cls-1 {
        fill: #fff;
        stroke-width: 0px;
      }
    </style>
  </defs>
  <path class="cls-1" d="M164.41,84.01c25.87-12.54,62.14-43.17,62.14-59.51,0-5.25-3.57-9.92-12.78-9.92C148.65,14.59,23.49,98.02,23.49,144.11c0,7.29,4.76,13.13,13.68,13.13,34.19,0,75.52-23.63,107.63-23.63,15.46,0,32.41,13.71,32.41,27.42,6.24-1.17,51.87-13.42,106.99-8.38,4.14.38,7.73,4.08,7.73,5.25,0,.88-.01,2.24-1.78,2.04-73.63-8.41-106.4,7.21-114.13,8.09-10.41,30.05-87.71,81.97-119.22,81.97-9.22,0-22.89-6.13-22.89-17.5,0-21.88,66.89-53.68,118.03-66.8,1.78-4.38,2.68-7.88,2.68-11.96,0-7.58-1.78-14.88-13.68-14.88-25.57,0-80.57,26.84-109.71,26.84-16.05,0-31.22-10.5-31.22-23.92C0,86.35,133.79,0,205.14,0c17.54,0,26.76,12.54,26.76,23.34,0,23.63-57.08,67.68-62.43,67.68-1.78,0-6.54-4.08-6.54-5.54,0-.58.59-1.17,1.49-1.46ZM150.14,171.82c-48.46,10.79-100.49,40.84-100.49,66.51,0,4.08,2.68,7.29,8.32,7.29,19.03,0,75.81-39.67,92.17-73.8Z"/>
  <path class="cls-1" d="M291.57,204.99c-13.18-2.28-24.96-12.32-22.23-27.51,5.81-32.32,49.15-61.81,71.21-57.99,8.23,1.42,16.08,8.78,14.51,17.51-.87,4.85-5.27,10.42-12.3,15.53-.39.27-4.79.17-6.1-.06-.33-.06-.6-.44-.54-.76s.56-1.24,1.34-1.77c5.04-3.46,11.2-9.39,11.89-13.27.06-.32.02-2-2.29-2.4-15.81-2.74-52.83,21.85-57.77,49.32-1.45,8.08,2.02,13.35,8.28,14.43,26.35,4.56,125.51-34.06,125.51-34.06,0,0,1.55-1.06,2.21-.95s1.14,1.2,1.09,1.52c-.12.65-2.83,2.51-3.99,3.31,0,0-103.81,41.82-130.82,37.14Z"/>
  <path class="cls-1" d="M555.41,161.79c.99.17,1.14,1.2,1.09,1.52-.12.65-2.83,2.51-3.99,3.31,0,0-89.13,35.69-114.49,31.3-17.13-2.96-26.14-15.19-23.12-31.99,5.23-29.09,41.32-54.17,57.13-51.43,10.21,1.77,13.06,14.26,12.42,17.81-1.39,7.76-22.47,21.11-42.62,29.28-1.01,1.83-2.61,8.88-3.02,11.14-1.8,10.02,1.2,17.87,8.78,19.18,17.46,3.02,105.62-29.17,105.62-29.17,0,0,1.55-1.06,2.21-.95ZM475.82,131.15c.17-.97.08-2.32-1.24-2.55-4.94-.85-17.55,6.96-31.5,27.87,15.58-7.3,31.69-19.51,32.74-25.33Z"/>
  <path class="cls-1" d="M605.75,134.41c-.87,4.85-8.31,12.22-17.71,22.93,14.86-7.09,49.04-21.51,60.89-19.46,6.26,1.08,9.83,13.36,9.07,17.56-.64,3.55-31.06,21.62-34.13,38.75-.35,1.94.74,3.46,2.71,3.8,22.07,3.82,111.57-30.14,111.57-30.14,0,0,1.55-1.06,2.21-.95.99.17,1.47,1.25,1.41,1.58-.12.65-4.32,3.25-4.32,3.25,0,0-95.19,37.31-112.32,34.35-8.89-1.54-18.72-14.9-16.86-25.24,2.56-14.22,19.64-29.93,20.05-32.19.06-.32-.21-.7-.54-.76-2.96-.51-27.34,6.6-48.36,19.63-23.67,14.57-29.93,30.48-33.22,29.91-3.29-.57-9.24-10.93-8.02-17.72s47.23-45.48,50.25-62.29c.46-2.59,2.01-3.65,3.99-3.31,6.26,1.08,14.84,11.9,13.33,20.3Z"/>
  <path class="cls-1" d="M730.36,168.32c5.23-29.09,41.32-54.17,57.13-51.43,10.21,1.77,13.06,14.26,12.42,17.81-1.51,8.4-24.51,21.09-44.66,29.26-1.01,1.83-2.56,8.56-2.96,10.82-1.8,10.02,1.86,17.98,9.44,19.29,6.92,1.2,15.11-4.72,21.58-8.6,1.94-1.33,3.1-2.13,3.76-2.02,1.32.23,1.8,1.31,1.63,2.28-.12.65-1.51,2.74-4.22,4.6-7.75,5.32-17.49,12.3-31,9.97-17.13-2.96-26.14-15.19-23.12-31.99ZM791.62,133.6c.17-.97-.25-2.38-1.57-2.6-4.94-.85-19.97,7.21-33.86,27.8,16.24-7.19,34.39-19.38,35.43-25.19Z"/>
</svg>