<?xml version="1.0" encoding="utf-8"?>
<!-- Generator: Adobe Illustrator 26.4.1, SVG Export Plug-In . SVG Version: 6.00 Build 0)  -->
<svg version="1.1" id="レイヤー_1" xmlns="http://www.w3.org/2000/svg" xmlns:xlink="http://www.w3.org/1999/xlink" x="0px"
	 y="0px" viewBox="0 0 200 200" style="enable-background:new 0 0 200 200;" xml:space="preserve">
<style type="text/css">
	.st0{fill:#FFFFFF;}
	.st1{fill:#231815;}
	.st2{fill:#885D07;}
	.st3{clip-path:url(#SVGID_00000136412457524912043190000004380953551837620608_);}
	.st4{fill:#274C9E;}
	.st5{fill:#182689;}
	.st6{fill:#073288;}
	.st7{fill:#003591;}
	.st8{fill:#004097;}
	.st9{fill:#497EBF;}
	.st10{fill:#2E69B2;}
	.st11{fill:#004A9E;}
	.st12{fill:#005FAC;}
</style>
<g>
	<rect x="40" y="40" class="st2" width="160" height="160"/>
	<g>
		<defs>
			<rect id="SVGID_1_" width="180" height="180"/>
		</defs>
		<clipPath id="SVGID_00000102502321228380347110000015269440648103222154_">
			<use xlink:href="#SVGID_1_"  style="overflow:visible;"/>
		</clipPath>
		<g style="clip-path:url(#SVGID_00000102502321228380347110000015269440648103222154_);">
			<polygon class="st6" points="150.26,133.16 150.26,133.16 217.24,162.58 217.24,180 163.09,180 150.26,133.16 			"/>
			<polygon class="st6" points="28.78,132.77 65.69,120.64 49.49,180 49.49,180 			"/>
			<polygon class="st7" points="97.79,110.1 97.79,110.1 104.86,180 49.49,180 65.69,120.64 			"/>
			<polygon class="st6" points="150.26,133.16 150.26,133.16 127.83,180 104.86,180 97.79,110.1 			"/>
			<polygon class="st7" points="150.26,133.16 163.09,180 127.83,180 150.26,133.16 			"/>
			<polygon class="st7" points="-16.58,147.66 28.78,132.77 49.49,180 -1.53,180 -14.39,172.24 			"/>
			<polygon class="st6" points="141.18,95.86 97.79,110.1 97.79,110.1 98.28,43.94 126.9,37.18 			"/>
			<polygon class="st8" points="205.05,18.73 193.45,42.97 187.63,22.84 			"/>
			<polygon class="st7" points="193.45,42.97 217.24,51.6 217.24,70.88 202.88,75.6 			"/>
			<polygon class="st7" points="117.85,0 120.24,9.8 98.61,0 			"/>
			<polygon class="st7" points="173.15,85.36 202.88,75.6 217.24,125.25 217.24,162.58 150.26,133.16 			"/>
			<polygon class="st9" points="-29.73,0 27.74,0 0,67.14 0,67.14 -24.72,56.28 			"/>
			<polygon class="st8" points="85.82,46.88 71.69,98.64 0,67.14 0,67.14 			"/>
			<polygon class="st10" points="27.74,0 98.61,0 85.82,46.88 0,67.14 			"/>
			<polygon class="st5" points="193.45,42.97 205.05,18.73 217.24,15.85 217.24,51.6 193.45,42.97 			"/>
			<polygon class="st7" points="98.61,0 98.28,43.94 85.82,46.88 98.61,0 			"/>
			<polygon class="st6" points="120.24,9.8 162.25,28.83 126.9,37.18 			"/>
			<polygon class="st11" points="193.45,42.97 162.25,28.83 187.63,22.84 193.45,42.97 193.45,42.97 			"/>
			<polygon class="st8" points="193.45,42.97 202.88,75.6 173.15,85.36 193.45,42.97 			"/>
			<polygon class="st7" points="126.9,37.18 162.25,28.83 193.45,42.97 193.45,42.97 173.15,85.36 141.18,95.86 			"/>
			<polygon class="st7" points="187.63,22.84 181.02,0 214.02,0 205.05,18.73 			"/>
			<polygon class="st8" points="162.25,28.83 120.24,9.8 117.85,0 181.02,0 187.63,22.84 			"/>
			<polygon class="st8" points="98.28,43.94 98.61,0 120.24,9.8 126.9,37.18 			"/>
			<polygon class="st8" points="173.15,85.36 150.26,133.16 150.26,133.16 141.18,95.86 			"/>
			<polygon class="st12" points="0,67.14 0,67.14 0,67.14 28.78,132.77 -16.58,147.66 -23.26,72.63 			"/>
			<polygon class="st11" points="0,67.14 71.69,98.64 65.69,120.64 28.78,132.77 0,67.14 			"/>
			<polygon class="st8" points="97.79,110.1 65.69,120.64 71.69,98.64 			"/>
			<polygon class="st7" points="141.18,95.86 150.26,133.16 97.79,110.1 97.79,110.1 			"/>
			<polygon class="st11" points="85.82,46.88 98.28,43.94 97.79,110.1 97.79,110.1 97.79,110.1 71.69,98.64 			"/>
		</g>
	</g>
</g>
</svg>
