<?xml version="1.0" encoding="UTF-8"?>
<svg id="_レイヤー_1" data-name="レイヤー 1" xmlns="http://www.w3.org/2000/svg" viewBox="0 0 600 600">
  <defs>
    <style>
      .cls-1 {
        fill: #2a8c2e;
        stroke: #fff;
        stroke-miterlimit: 10;
      }
    </style>
  </defs>
  <path class="cls-1" d="M186.15,383.7v-156.6h-53.4c-6.9,0-11.1-5.1-11.1-11.1s4.2-11.1,11.1-11.1h129.3c6.9,0,11.1,5.1,11.1,11.1s-4.2,11.1-11.1,11.1h-53.1v156.6c0,7.2-5.1,11.4-11.4,11.4s-11.4-4.2-11.4-11.4Z"/>
  <path class="cls-1" d="M251.28,359.7v-50.7c0-6.6,5.1-10.8,10.5-10.8,6,0,10.8,4.2,10.8,10.8v50.1c0,8.1,4.2,14.4,13.8,14.4,18.9,0,34.8-20.7,34.8-41.7v-22.8c0-6.6,5.1-10.8,10.5-10.8,6,0,10.8,4.2,10.8,10.8v56.1c0,5.7,1.5,9,6.3,9,7.5,0,16.5-12.3,23.4-22.8l3-4.5c2.1-3.3,5.1-6.6,10.8-6.6,6.6,0,11.4,4.8,11.4,11.4,0,4.2-2.7,8.1-3.6,9.3l-4.5,6.3c-4.5,6.6-7.5,10.2-13.2,15.3-12.3,11.1-21.3,12.6-30,12.6-14.1,0-22.2-6.9-24.3-19.5-7.5,10.2-20.4,19.5-36,19.5-28.8,0-34.5-20.1-34.5-35.4Z"/>
  <path class="cls-1" d="M376.65,353.4c0-22.5,13.5-55.2,39.9-55.2,16.8,0,26.7,11.7,26.7,26.4,0,20.1-17.4,33.9-43.2,38.4,3,6.9,9.9,11.1,20.1,11.1,13.8,0,24-9,33-22.8l3-4.5c2.1-3.3,5.1-6.6,10.8-6.6,6.6,0,11.4,4.8,11.4,11.4,0,4.2-2.7,8.1-3.6,9.3l-4.5,6.3c-12.6,17.7-30.3,27.9-50.1,27.9-27.6,0-43.5-16.2-43.5-41.7ZM421.65,324.6c0-3-2.4-5.4-5.1-5.4-9.6,0-15.3,12.6-17.4,24.6,13.8-4.5,22.5-12.3,22.5-19.2Z"/>
</svg>