<?xml version="1.0" encoding="UTF-8"?>
<svg id="_レイヤー_1" data-name="レイヤー 1" xmlns="http://www.w3.org/2000/svg" viewBox="0 0 600 600">
  <defs>
    <style>
      .cls-1 {
        fill: #2a8c2e;
        stroke: #fff;
        stroke-miterlimit: 10;
      }
    </style>
  </defs>
  <path class="cls-1" d="M210.35,183.5L162.05,20c-.6-1.5-1.8-6-1.8-7.8,0-6.6,4.5-11.7,11.4-11.7s9.9,3.6,11.1,8.1l41.1,141,33.6-74.7c2.1-4.5,5.4-7.2,9.9-7.2s7.8,2.7,9.9,7.2l33.6,74.7L351.95,8.6c1.2-4.5,4.5-8.1,11.1-8.1s11.4,5.1,11.4,11.7c0,1.8-1.2,6.3-1.8,7.8l-48.3,163.5c-1.8,6.3-4.5,10.2-10.5,10.2-5.4,0-8.7-3-10.8-7.8l-35.7-80.4-35.7,80.4c-2.1,4.8-5.4,7.8-10.8,7.8-6,0-8.7-3.9-10.5-10.2Z"/>
  <path class="cls-1" d="M368.89,152c0-22.5,13.5-55.2,39.9-55.2,16.8,0,26.7,11.7,26.7,26.4,0,20.1-17.4,33.9-43.2,38.4,3,6.9,9.9,11.1,20.1,11.1,13.8,0,24-9,33-22.8l3-4.5c2.1-3.3,5.1-6.6,10.8-6.6,6.6,0,11.4,4.8,11.4,11.4,0,4.2-2.7,8.1-3.6,9.3l-4.5,6.3c-12.6,17.7-30.3,27.9-50.1,27.9-27.6,0-43.5-16.2-43.5-41.7ZM413.89,123.2c0-3-2.4-5.4-5.1-5.4-9.6,0-15.3,12.6-17.4,24.6,13.8-4.5,22.5-12.3,22.5-19.2Z"/>
  <path class="cls-1" d="M448.9,156.5c0-37.2,38.7-56.7,74.4-59.4V32.3c0-6.6,5.1-10.8,10.5-10.8,6,0,10.8,4.2,10.8,10.8v131.4c0,5.7,1.5,9,6.3,9,7.5,0,16.5-12.3,23.4-22.8l3-4.5c2.1-3.3,5.1-6.6,10.8-6.6,6.6,0,11.4,4.8,11.4,11.4,0,4.2-2.4,7.8-3.6,9.3l-4.5,6.3c-4.5,6.3-7.5,10.2-13.2,15.3-12.3,11.1-21.3,12.6-30,12.6-12,0-19.5-5.1-22.8-14.1-11.7,11.1-24,14.1-34.8,14.1-26.1,0-41.7-12.6-41.7-37.2ZM523.3,141.2v-23.1c-19.8,0-52.8,12-52.8,36.9,0,11.1,7.5,17.7,20.1,17.7,16.8,0,32.7-14.1,32.7-31.5Z"/>
</svg>