<?xml version="1.0" encoding="UTF-8"?>
<svg id="_レイヤー_1" data-name="レイヤー 1" xmlns="http://www.w3.org/2000/svg" viewBox="0 0 600 600">
  <defs>
    <style>
      .cls-1 {
        fill: #2a8c2e;
        stroke: #fff;
        stroke-miterlimit: 10;
      }
    </style>
  </defs>
  <path class="cls-1" d="M240.85,173.6c-3-3-4.5-5.7-4.5-9.3,0-6.6,5.1-11.7,11.7-11.7,3.6,0,6.9,1.2,9.3,3.9,9,10.5,21.9,15,40.2,15,21.3,0,41.7-9.6,41.7-34.5,0-21.3-21.9-29.1-44.1-35.7-26.7-7.8-55.5-20.1-55.5-52.8,0-30.6,24.3-48,57.9-48,20.1,0,33.6,5.4,42.3,9.9,3.9,2.1,8.7,5.7,8.7,12s-3.9,11.7-11.7,11.7c-3.3,0-6.9-1.8-9-3.3-4.8-3-16.5-8.1-30.3-8.1-20.1,0-34.8,8.4-34.8,24.9,0,18.6,16.5,24.9,36.6,30.9,29.4,9,63.3,21.3,63.3,58.5s-32.7,56.7-65.1,56.7c-27.3,0-45.6-8.1-56.7-20.1Z"/>
  <path class="cls-1" d="M375.1,156.5c0-40.2,45.6-59.7,83.1-59.7,7.5,0,12.6,4.8,12.6,12v54.9c0,5.7,1.5,9,6.3,9,7.5,0,16.5-12.3,23.4-22.8l3-4.5c2.1-3.3,5.1-6.6,10.8-6.6,6.6,0,11.4,4.8,11.4,11.4,0,4.2-2.4,7.8-3.6,9.3l-4.5,6.3c-4.5,6.3-7.5,10.2-13.2,15.3-12.3,11.1-21.3,12.6-30,12.6-12,0-19.5-5.1-22.8-14.1-11.7,11.1-24,14.1-34.8,14.1-26.1,0-41.7-12.6-41.7-37.2ZM449.5,141.2v-23.1c-19.8,0-52.8,12-52.8,36.9,0,11.1,7.5,17.7,20.1,17.7,16.2,0,32.7-13.2,32.7-31.5Z"/>
  <path class="cls-1" d="M523.3,166.7v-8.7c-.9.9-2.1,1.8-3.3,2.4-1.8.9-3.9,1.2-5.1,1.2-6.6,0-11.4-4.8-11.4-11.4,0-3.3.9-5.4,2.4-7.5l17.4-25.5v-17.4h-7.8c-6.3,0-10.5-4.5-10.5-10.8s4.2-10.2,10.5-10.2h7.8v-35.4c0-6.6,5.1-10.8,10.5-10.8,6,0,10.8,4.2,10.8,10.8v35.4h21.6c5.7,0,10.2,4.2,10.2,10.2,0,6.3-4.5,10.8-10.5,10.8h-21.3v63.9c0,5.7,1.5,9,6.3,9,7.5,0,16.5-12.3,23.4-22.8l3-4.5c2.1-3.3,5.1-6.6,10.8-6.6,6.6,0,11.4,4.8,11.4,11.4,0,4.2-2.4,7.8-3.6,9.3l-4.5,6.3c-4.5,6.3-7.5,10.2-13.2,15.3-12.3,11.1-21.3,12.6-30,12.6-16.5,0-24.9-9.9-24.9-27Z"/>
</svg>