<?xml version="1.0" encoding="UTF-8"?>
<svg id="_レイヤー_1" data-name="レイヤー 1" xmlns="http://www.w3.org/2000/svg" viewBox="0 0 600 600">
  <defs>
    <style>
      .cls-1 {
        fill: #2a8c2e;
        stroke: #fff;
        stroke-miterlimit: 10;
      }
    </style>
  </defs>
  <path class="cls-1" d="M164.42,579.4c-3-3-4.5-5.7-4.5-9.3,0-6.6,5.1-11.7,11.7-11.7,3.6,0,6.9,1.2,9.3,3.9,9,10.5,21.9,15,40.2,15,21.3,0,41.7-9.6,41.7-34.5,0-21.3-21.9-29.1-44.1-35.7-26.7-7.8-55.5-20.1-55.5-52.8,0-30.6,24.3-48,57.9-48,20.1,0,33.6,5.4,42.3,9.9,3.9,2.1,8.7,5.7,8.7,12s-3.9,11.7-11.7,11.7c-3.3,0-6.9-1.8-9-3.3-4.8-3-16.5-8.1-30.3-8.1-20.1,0-34.8,8.4-34.8,24.9,0,18.6,16.5,24.9,36.6,30.9,29.4,9,63.3,21.3,63.3,58.5s-32.7,56.7-65.1,56.7c-27.3,0-45.6-8.1-56.7-20.1Z"/>
  <path class="cls-1" d="M303.1,564.1v-50.7c0-6.6,5.1-10.8,10.5-10.8,6,0,10.8,4.2,10.8,10.8v50.1c0,8.1,4.2,14.4,13.8,14.4,18.9,0,34.8-20.7,34.8-41.7v-22.8c0-6.6,5.1-10.8,10.5-10.8,6,0,10.8,4.2,10.8,10.8v56.1c0,5.7,1.5,9,6.3,9,7.5,0,16.5-12.3,23.4-22.8l3-4.5c2.1-3.3,5.1-6.6,10.8-6.6,6.6,0,11.4,4.8,11.4,11.4,0,4.2-2.7,8.1-3.6,9.3l-4.5,6.3c-4.5,6.6-7.5,10.2-13.2,15.3-12.3,11.1-21.3,12.6-30,12.6-14.1,0-22.2-6.9-24.3-19.5-7.5,10.2-20.4,19.5-36,19.5-28.8,0-34.5-20.1-34.5-35.4Z"/>
  <path class="cls-1" d="M473.5,588.7v-49.8c0-7.2-.3-8.7-2.1-8.7s-4.2,3.6-6.9,8.1l-11.4,16.5-5.1,7.5c-2.7,3.9-6.9,5.1-9.6,5.1-6.6,0-11.4-4.8-11.4-11.4,0-3.3.9-5.4,2.4-7.5l22.2-31.8c6.6-9.3,13.2-14.1,21.6-14.1s14.7,3.9,18,11.4c6.9-6.9,15.6-11.4,24.3-11.4,21.9,0,29.1,13.5,29.1,32.7v34.2c0,5.7,1.8,9,6.3,9,7.5,0,16.5-12.3,23.4-22.8l3-4.5c2.1-3.3,5.1-6.6,10.8-6.6,6.6,0,11.4,4.8,11.4,11.4,0,4.2-2.1,7.2-3.9,9.6l-4.5,6.3c-4.8,6.9-7.5,9.9-12.9,15-12,11.4-21.3,12.6-30,12.6-16.5,0-24.9-9.9-24.9-27v-34.8c0-7.8-1.8-14.1-9.3-14.1s-15,6-19.2,16.8v48.3c0,6.6-4.8,10.8-10.8,10.8-5.4,0-10.5-4.2-10.5-10.8Z"/>
</svg>