<?xml version="1.0" encoding="UTF-8"?>
<svg id="_レイヤー_1" data-name="レイヤー 1" xmlns="http://www.w3.org/2000/svg" viewBox="0 0 600 600">
  <defs>
    <style>
      .cls-1 {
        fill: #2a8c2e;
        stroke: #fff;
        stroke-miterlimit: 10;
      }
    </style>
  </defs>
  <path class="cls-1" d="M65,588.1v-156.6H11.6c-6.9,0-11.1-5.1-11.1-11.1s4.2-11.1,11.1-11.1h129.3c6.9,0,11.1,5.1,11.1,11.1s-4.2,11.1-11.1,11.1h-53.1v156.6c0,7.2-5.1,11.4-11.4,11.4s-11.4-4.2-11.4-11.4Z"/>
  <path class="cls-1" d="M161.93,588.7v-24.6c-.6.6-1.2,1.2-2.4,1.8-1.5.9-3.6,1.5-6,1.5-6.6,0-11.4-4.8-11.4-11.4,0-3,.9-5.4,2.4-7.5l17.4-25.2v-75.9c0-23.1,5.4-41.1,26.1-41.1,17.7,0,26.7,17.7,26.7,35.4,0,33-12.6,59.1-24.6,78.3,9-10.8,20.4-17.4,32.7-17.4,23.7,0,31.2,18.3,31.2,33.6v33.3c0,5.7,1.5,9,6.3,9,7.5,0,16.5-12.3,23.4-22.8l3-4.5c2.1-3.3,5.1-6.6,10.8-6.6,6.6,0,11.4,4.8,11.4,11.4,0,4.2-2.7,8.1-3.6,9.3l-4.5,6.3c-4.5,6.3-7.5,10.2-13.2,15.3-12.3,11.1-21.3,12.6-30,12.6-16.5,0-24.9-9.9-24.9-27v-36.3c0-8.1-3.3-12.6-9.9-12.6-12.9,0-33.9,18.3-39.6,36v29.1c0,6.6-4.8,10.8-10.8,10.8-5.4,0-10.5-4.2-10.5-10.8ZM193.13,443.5c0-6-.9-16.2-5.1-16.2-4.5,0-4.8,8.7-4.8,16.8v46.5c4.2-10.2,9.9-30,9.9-47.1Z"/>
  <path class="cls-1" d="M290.84,564.1v-50.7c0-6.6,5.1-10.8,10.5-10.8,6,0,10.8,4.2,10.8,10.8v50.1c0,8.1,4.2,14.4,13.8,14.4,18.9,0,34.8-20.7,34.8-41.7v-22.8c0-6.6,5.1-10.8,10.5-10.8,6,0,10.8,4.2,10.8,10.8v56.1c0,5.7,1.5,9,6.3,9,7.5,0,16.5-12.3,23.4-22.8l3-4.5c2.1-3.3,5.1-6.6,10.8-6.6,6.6,0,11.4,4.8,11.4,11.4,0,4.2-2.7,8.1-3.6,9.3l-4.5,6.3c-4.5,6.6-7.5,10.2-13.2,15.3-12.3,11.1-21.3,12.6-30,12.6-14.1,0-22.2-6.9-24.3-19.5-7.5,10.2-20.4,19.5-36,19.5-28.8,0-34.5-20.1-34.5-35.4Z"/>
</svg>