<?xml version="1.0" encoding="UTF-8"?>
<svg id="_レイヤー_1" data-name="レイヤー 1" xmlns="http://www.w3.org/2000/svg" viewBox="0 0 600 600">
  <defs>
    <style>
      .cls-1 {
        fill: #2a8c2e;
        stroke: #fff;
        stroke-miterlimit: 10;
      }
    </style>
  </defs>
  <path class="cls-1" d="M.5,182.3V13.7C.5,6.2,3.8.5,11,.5c4.8,0,8.4,3.3,11.4,6.9l68.1,87.6L158.6,7.4c3-3.6,6.6-6.9,11.4-6.9,7.2,0,10.5,6,10.5,13.2v168.6c0,7.2-5.1,11.4-11.4,11.4s-11.4-4.2-11.4-11.4V45.2l-58.8,75.6c-2.1,2.7-4.5,4.5-8.4,4.5s-6.3-1.8-8.4-4.5L23.3,45.2v137.1c0,7.2-5.1,11.4-11.4,11.4s-11.4-4.2-11.4-11.4Z"/>
  <path class="cls-1" d="M214.85,145.4c0-27.9,20.7-48.6,49.5-48.6,20.7,0,37.2,10.8,44.7,27.3,5.1-2.7,9.9-6,15-9.9,1.8-1.5,4.2-2.4,7.2-2.4,6.6,0,11.4,4.8,11.4,11.4,0,3.6-1.5,7.2-5.1,9.6-9.3,6.3-16.8,10.8-23.7,13.5-.6,27.6-21,47.4-49.5,47.4s-49.5-20.4-49.5-48.3ZM291.65,151.4h-4.5c-25.5,0-41.1-12.9-41.1-26.7v-1.2c-6,4.8-9.6,12.6-9.6,21.9,0,16.5,11.4,27.9,27.9,27.9,14.4,0,24.9-8.7,27.3-21.9ZM288.65,131c-3.3-6-10.2-12.6-18-12.6-2.7,0-4.5,1.8-4.5,4.2,0,6.3,11.4,8.4,21,8.4h1.5Z"/>
  <path class="cls-1" d="M383.63,182.9v-54.9c0-3.6-.3-6.3-3.3-6.3-2.1,0-6,3-10.8,6.9l-4.2,3.3c-2.4,1.8-5.1,2.7-7.8,2.7-6.6,0-11.4-4.8-11.4-11.4s5.1-9.9,7.2-11.1c6.6-3.9,10.5-6.3,12.9-8.1,5.4-3.6,10.8-7.2,17.1-7.2,10.2,0,14.7,4.8,18,11.4,6.9-6.9,15.6-11.4,24.3-11.4,21.9,0,29.1,13.5,29.1,32.7v34.2c0,5.7,1.8,9,6.3,9,7.5,0,16.5-12.3,23.4-22.8l3-4.5c2.1-3.3,5.1-6.6,10.8-6.6,6.6,0,11.4,4.8,11.4,11.4,0,4.2-2.7,8.1-3.9,9.6l-4.5,6c-4.8,6.3-9.6,12.3-12.9,15.3-12.3,11.1-21.3,12.6-30,12.6-16.5,0-24.9-9.9-24.9-27v-34.8c0-7.8-1.8-14.1-9.3-14.1s-15,6-19.2,16.8v48.3c0,6.6-4.8,10.8-10.8,10.8-5.4,0-10.5-4.2-10.5-10.8Z"/>
</svg>