<?xml version="1.0" encoding="UTF-8"?>
<svg id="_レイヤー_1" data-name="レイヤー 1" xmlns="http://www.w3.org/2000/svg" viewBox="0 0 600 600">
  <defs>
    <style>
      .cls-1 {
        fill: #2a8c2e;
        stroke: #fff;
        stroke-miterlimit: 10;
      }
    </style>
  </defs>
  <path class="cls-1" d="M144.77,383.7v-167.4c0-7.2,3.3-11.4,10.8-11.4h92.7c6.9,0,11.1,5.1,11.1,11.1s-4.2,11.1-11.1,11.1h-80.7v51h68.7c6.9,0,11.1,5.1,11.1,11.1s-4.2,11.1-11.1,11.1h-68.7v83.4c0,7.2-5.1,11.4-11.4,11.4s-11.4-4.2-11.4-11.4Z"/>
  <path class="cls-1" d="M299.42,369c0-8.4,3-18,5.7-25.8,1.8-5.4,3.3-10.2,3.3-12.9,0-3.3-1.8-7.5-6.3-7.5-7.2,11.1-14.7,22.5-20.4,30.3l-3,4.2c-1.8,2.7-5.4,5.7-10.2,5.7-6.6,0-11.4-4.8-11.4-11.4,0-2.7.9-5.1,2.1-6.9l9.9-14.7c2.7-4.2,6.6-9.6,9-12.9-10.8-5.7-17.1-15-17.1-26.7,0-16.2,13.5-26.4,27.3-26.4,15,0,25.5,10.8,25.5,25.5,0,4.2-1.5,9.6-3.6,13.8,10.2,3.9,20.4,8.1,20.4,22.2,0,5.4-2.1,13.2-4.5,20.7-2.4,7.5-4.5,15-4.5,19.8,0,5.7,3,8.1,8.7,8.1,11.1,0,19.2-12.3,26.1-22.8l3-4.5c2.1-3.3,5.1-6.6,10.8-6.6,6.6,0,11.4,4.8,11.4,11.4,0,4.2-2.7,8.1-3.6,9.3l-4.5,6.3c-4.5,6.6-7.8,9.9-13.2,15.3-10.8,10.5-23.1,12.6-30,12.6-16.8,0-30.9-6-30.9-26.1ZM292.22,289.8c0-3.3-1.5-6.3-5.1-6.3-2.7,0-4.5,2.4-4.5,5.1,0,4.8,3.9,7.5,7.5,8.7,1.2-2.4,2.1-5.1,2.1-7.5Z"/>
  <path class="cls-1" d="M379.03,368.1v-8.7c-1.2,1.2-2.1,1.8-3.3,2.4-1.8.9-3.9,1.2-5.1,1.2-6.6,0-11.4-4.8-11.4-11.4,0-3.3.9-5.4,2.4-7.5l17.4-25.5v-9.6c0-6.6,5.1-10.8,10.5-10.8,6,0,10.8,4.2,10.8,10.8v56.1c0,5.7,1.5,9,6.3,9,7.5,0,16.5-12.3,23.4-22.8l3-4.5c2.1-3.3,5.1-6.6,10.8-6.6,6.6,0,11.4,4.8,11.4,11.4,0,4.2-2.4,7.8-3.6,9.3l-4.5,6.3c-4.5,6.3-7.5,10.2-13.2,15.3-12.3,11.1-21.3,12.6-30,12.6-16.5,0-24.9-9.9-24.9-27ZM375.13,267.6c0-7.8,6.6-14.1,14.1-14.1s14.4,6.3,14.4,14.1-6.6,14.1-14.4,14.1-14.1-6.6-14.1-14.1Z"/>
</svg>