<?xml version="1.0" encoding="UTF-8"?>
<svg xmlns="http://www.w3.org/2000/svg" viewBox="0 0 1200 440">
  <defs>
    <style>
      .cls-1 {
        fill: #f38600;
        stroke: #fff;
        stroke-width: 2px;
      }

      .cls-1, .cls-2 {
        stroke-miterlimit: 10;
      }

      .cls-2 {
        fill: #fff;
        stroke: #000333;
        stroke-width: .75px;
      }
    </style>
  </defs>
  <g id="_レイヤー_1のコピー" data-name="レイヤー 1のコピー">
    <g>
      <path class="cls-2" d="M402.92,180.87l22.6-157.43c.96-6.65,6.27-10.52,12.15-10.5s10.08,3.91,9.13,10.56l-8.63,60.14,90.72.24,8.63-60.14c.96-6.65,6.27-10.52,12.15-10.5s10.08,3.91,9.13,10.56l-22.6,157.43c-.95,6.65-6.27,10.52-12.15,10.5s-10.08-3.91-9.13-10.56l11.02-76.77-90.72-.24-11.02,76.77c-.95,6.65-6.27,10.52-12.15,10.5s-10.08-3.91-9.13-10.56Z"/>
      <path class="cls-2" d="M560.04,153.28c2.98-20.79,19.92-50.96,44.56-50.9,15.68.04,23.37,10.88,21.42,24.46-2.67,18.57-20.74,31.28-45.41,35.37,1.88,6.38,7.77,10.28,17.29,10.3,12.88.03,23.59-8.26,33.82-20.98l3.4-4.15c2.4-3.04,5.63-6.08,10.95-6.07,6.16.02,10,4.46,9.13,10.56-.56,3.88-3.59,7.48-4.59,8.58l-5.04,5.81c-14.11,16.32-31.98,25.7-50.46,25.65-25.76-.07-38.45-15.07-35.07-38.63ZM605.86,126.78c.4-2.77-1.52-4.99-4.04-5-8.96-.02-15.95,11.6-19.5,22.68,13.48-4.12,22.63-11.31,23.55-17.68Z"/>
      <path class="cls-2" d="M650.6,167.1l1.11-7.76c-.64.55-1.88,1.38-3.08,1.93-1.48.55-3.24,1.1-5.2,1.09-6.16-.02-10-4.46-9.13-10.56.4-2.77,1.56-4.99,3.23-6.92l19.58-23.24,10.07-70.12c3.06-21.34,10.49-37.96,29.81-37.91,16.52.04,22.57,16.42,20.23,32.77-5.21,36.31-27.03,65.36-41.53,84.46l-4.81,33.54c-.76,5.27.21,8.32,4.69,8.33,7,.02,17.03-11.32,24.86-21.01l3.4-4.15c2.4-3.04,5.63-6.08,10.96-6.07,6.16.02,10,4.46,9.13,10.56-.56,3.88-3.27,7.2-4.59,8.58l-5.04,5.81c-5.04,5.81-8.35,9.41-14.35,14.1-12.95,10.23-21.55,11.59-29.67,11.57-15.4-.04-21.93-9.21-19.66-25ZM696.83,48c.8-5.54,1.31-14.97-2.61-14.98-4.2-.01-5.63,8.03-6.71,15.51l-6.17,42.96c5.27-9.41,13.22-27.69,15.49-43.49Z"/>
      <path class="cls-2" d="M719.17,167.28l1.11-7.76c-.64.55-1.88,1.38-3.08,1.93-1.48.55-3.24,1.1-5.2,1.1-6.16-.02-10-4.46-9.13-10.56.4-2.77,1.56-4.99,3.23-6.92l19.58-23.24,10.07-70.12c3.06-21.34,10.49-37.96,29.81-37.91,16.52.04,22.57,16.42,20.23,32.77-5.21,36.31-27.03,65.36-41.53,84.46l-4.81,33.54c-.76,5.27.21,8.32,4.69,8.33,7,.02,17.03-11.32,24.86-21.01l3.4-4.15c2.4-3.04,5.63-6.08,10.96-6.07,6.16.02,10,4.46,9.13,10.56-.56,3.88-3.27,7.2-4.59,8.58l-5.04,5.81c-5.04,5.81-8.35,9.41-14.35,14.1-12.95,10.23-21.55,11.59-29.67,11.57-15.4-.04-21.93-9.21-19.66-25ZM765.4,48.18c.8-5.54,1.31-14.97-2.61-14.98-4.2-.01-5.63,8.03-6.71,15.51l-6.17,42.96c5.27-9.41,13.22-27.69,15.49-43.49Z"/>
      <path class="cls-2" d="M773.46,147.74c3.7-25.77,25.76-44.85,52.64-44.78s43.45,19.25,39.75,45.02c-.44,3.05-1.16,6.1-2.11,8.87,4-2.49,7.88-6.08,11.91-10.78,2.32-2.49,5.64-4.14,9.28-4.13,6.16.02,10,4.46,9.13,10.56-.28,1.94-.8,3.6-1.84,4.99-11.99,15.22-25.54,21.84-43.82,22.34-9.55,8.02-21.71,12.7-35.15,12.66-26.88-.07-43.49-18.97-39.79-44.74ZM821.92,173.1c-8.61-6.4-11.33-16.67-9.94-26.37,1.47-10.25,7.66-20.22,16.94-24.36-1.64-.28-3.56-.56-5.52-.57-15.4-.04-27.59,10.74-29.78,25.98-2.19,15.24,6.94,25.8,22.34,25.84,1.96,0,3.92.01,5.96-.54ZM845.7,147.93c.56-3.88.55-11.64-5.05-11.66-2.8,0-6.04,3.03-6.83,8.58-.99,6.93,2.49,11.93,8.01,14.44,1.88-3.32,3.27-7.2,3.87-11.36Z"/>
      <path class="cls-2" d="M134.79,417.83l22.64-157.7c.95-6.65,4.27-10.25,10.71-10.23,4.48.01,7.64,3.35,10.17,7.24l90.98,131.11,18.3-127.49c.95-6.65,6.27-10.52,12.15-10.51,5.88.02,10.08,3.91,9.13,10.56l-22.64,157.7c-.95,6.65-4.27,10.25-10.71,10.23-4.48-.01-7.64-3.35-10.17-7.24l-90.94-131.38-18.34,127.77c-.96,6.65-6.27,10.52-12.15,10.5-5.88-.02-10.08-3.91-9.13-10.56Z"/>
      <path class="cls-2" d="M310.28,390.28c2.98-20.79,19.92-50.96,44.56-50.9,15.68.04,23.37,10.88,21.42,24.46-2.67,18.57-20.74,31.28-45.41,35.37,1.88,6.38,7.77,10.28,17.29,10.3,12.88.03,23.59-8.26,33.82-20.98l3.4-4.15c2.4-3.04,5.64-6.08,10.96-6.07,6.16.02,10,4.46,9.13,10.56-.56,3.88-3.59,7.48-4.59,8.58l-5.04,5.81c-14.11,16.32-31.98,25.7-50.46,25.65-25.76-.07-38.45-15.07-35.07-38.63ZM356.1,363.78c.4-2.77-1.52-4.99-4.04-5-8.96-.02-15.95,11.6-19.5,22.68,13.48-4.12,22.63-11.31,23.55-17.68Z"/>
      <path class="cls-2" d="M434.46,384.51c.11-6.65-.29-15.53-5.61-15.54-3.92,0-8.64,5.52-19.79,18.8l-5.75,6.92c-3.04,3.6-7.12,4.7-9.64,4.69-6.16-.02-10-4.46-9.13-10.56.44-3.05,1.56-4.99,3.23-6.92,15.42-19.64,29.17-35.41,44.29-35.37,21,.05,22.89,18.08,22.83,32.22-.11,16.36.3,31.05,16.82,31.1,14.56.04,22.79-16.3,26.92-45.12.88-6.1,5.99-10.52,12.15-10.5,6.16.02,10,4.46,9.13,10.56-4.69,32.71,1.64,45.2,15.36,45.23,5.88.02,11.28-2.47,16.03-6.34-8.09-10-11.94-24.15-10.07-37.18,2.71-18.85,15.02-26.58,27.06-26.55,19.04.05,21.42,20.57,19.63,33.05-1.15,8.04-4.11,16.9-8.62,24.93h1.96c10.36.03,17.88-5.49,25.95-14.9,2.04-2.49,5.64-4.14,9.28-4.13,6.16.02,10,4.46,9.13,10.56-.4,2.77-1.8,4.71-3.19,6.65-10.91,13.56-25.18,21.28-43.94,21.23-4.48-.01-8.56-.85-12.56-2.25-9.07,8.57-20.27,14.36-33.43,14.33-12.04-.03-23.76-4.22-30.29-17.27-8.19,10.24-19.27,17.14-33.27,17.1-21.84-.06-35.21-8.41-34.47-44.73ZM567.77,372.93c.76-5.27,1.11-13.58-2.25-13.59-3.08,0-3.36,1.93-4.11,7.2-.88,6.1.09,13.03,2.89,18.86,1.72-4.15,2.87-8.31,3.47-12.47Z"/>
      <path class="cls-2" d="M694.72,419.29l22.6-157.43c.96-6.65,6.27-10.52,12.15-10.5,5.88.01,10.08,3.91,9.13,10.56l-22.6,157.43c-.96,6.65-6.27,10.52-12.15,10.5-5.88-.02-10.08-3.91-9.13-10.56Z"/>
      <path class="cls-2" d="M752.51,405.02l1.15-8.04c-.96.83-2.2,1.66-3.4,2.21-1.8.83-3.8,1.1-4.92,1.1-6.16-.02-10-4.46-9.13-10.56.44-3.05,1.56-4.99,3.23-6.92l19.62-23.52,2.31-16.08-7.28-.02c-5.88-.02-9.2-4.18-8.37-10,.8-5.54,5.27-9.41,11.15-9.4l7.28.02,4.69-32.71c.88-6.1,6.19-9.97,11.23-9.95,5.6.01,9.52,3.91,8.65,10l-4.69,32.71,20.16.05c5.32.01,8.96,3.9,8.17,9.45-.84,5.82-5.63,9.97-11.23,9.95l-19.88-.05-8.47,59.04c-.76,5.27.21,8.32,4.69,8.33,7,.02,17.03-11.32,24.86-21.01l3.4-4.15c2.4-3.04,5.63-6.08,10.96-6.07,6.16.02,10,4.46,9.13,10.56-.56,3.88-3.27,7.2-4.59,8.58l-5.04,5.81c-5.04,5.81-8.35,9.41-14.35,14.1-12.95,10.22-21.55,11.59-29.67,11.57-15.4-.04-21.93-9.21-19.66-25.01Z"/>
      <path class="cls-2" d="M806.65,391.58c2.98-20.79,19.92-50.96,44.56-50.9,15.68.04,23.37,10.87,21.42,24.45-2.67,18.57-20.74,31.28-45.41,35.37,1.88,6.38,7.77,10.28,17.29,10.3,12.88.03,23.59-8.26,33.82-20.98l3.4-4.15c2.4-3.04,5.63-6.08,10.96-6.07,6.16.02,10,4.46,9.13,10.56-.56,3.88-3.59,7.48-4.59,8.58l-5.04,5.81c-14.11,16.32-31.98,25.7-50.46,25.65-25.76-.07-38.45-15.07-35.07-38.63ZM852.47,365.08c.4-2.77-1.52-4.99-4.04-5-8.96-.02-15.95,11.6-19.5,22.68,13.48-4.12,22.63-11.31,23.55-17.68Z"/>
      <path class="cls-2" d="M919.98,420.43l6.84-47.67c.6-4.16.63-6.38-1.04-6.38-1.68,0-5.08,4.15-7.79,7.47-1.08,1.66-5.48,6.92-12.55,15.22l-5.75,6.92c-3.04,3.6-7.12,4.69-9.64,4.69-6.16-.02-10-4.46-9.13-10.56.44-3.05,1.56-4.99,3.23-6.92l24.94-29.32c7.39-8.58,14.19-12.99,22.03-12.97,8.96.02,14.2,4.47,15.81,12.79,7.55-7.74,17.51-12.71,26.47-12.68,12.32.03,18.96,4.49,21.81,11.98,8.03-7.19,18.23-11.88,27.47-11.85,20.44.05,25.37,12.54,22.82,30.28l-4.54,31.6c-.76,5.27.49,8.32,4.69,8.33,7,.02,17.03-11.32,24.86-21.01l3.4-4.15c2.4-3.04,5.64-6.08,10.96-6.07,6.16.02,10,4.46,9.13,10.56-.56,3.88-3.55,7.2-4.87,8.58l-5.03,5.81c-5.04,5.81-8.35,9.41-14.07,14.1-12.71,10.5-21.55,11.59-29.67,11.57-15.4-.04-21.93-9.21-19.66-25.01l4.62-32.15c1.03-7.21.19-13.03-6.81-13.05-9.8-.03-19.71,10.48-24.18,24.06l-5.17,36.03c-.88,6.1-6.19,9.96-11.51,9.95-5.04-.01-9.24-3.91-8.37-10l6.84-47.67c.99-6.93-.17-12.48-6.89-12.5-8.96-.02-20.75,11.87-24.46,26l-4.89,34.09c-.88,6.1-5.91,9.97-11.51,9.95-5.04-.01-9.24-3.91-8.37-10Z"/>
    </g>
  </g>
  <g id="_レイヤー_1のコピー_2" data-name="レイヤー 1のコピー 2">
    <g>
      <path class="cls-1" d="M392.92,170.25l22.6-157.43c.96-6.65,6.27-10.52,12.15-10.5s10.08,3.91,9.13,10.56l-8.63,60.14,90.72.24,8.63-60.14c.96-6.65,6.27-10.52,12.15-10.5s10.08,3.91,9.13,10.56l-22.6,157.43c-.95,6.65-6.27,10.52-12.15,10.5s-10.08-3.91-9.13-10.56l11.02-76.77-90.72-.24-11.02,76.77c-.95,6.65-6.27,10.52-12.15,10.5s-10.08-3.91-9.13-10.56Z"/>
      <path class="cls-1" d="M550.04,142.65c2.98-20.79,19.92-50.96,44.56-50.9,15.68.04,23.37,10.88,21.42,24.46-2.67,18.57-20.74,31.28-45.41,35.37,1.88,6.38,7.77,10.28,17.29,10.3,12.88.03,23.59-8.26,33.82-20.98l3.4-4.15c2.4-3.04,5.63-6.08,10.95-6.07,6.16.02,10,4.46,9.13,10.56-.56,3.88-3.59,7.48-4.59,8.58l-5.04,5.81c-14.11,16.32-31.98,25.7-50.46,25.65-25.76-.07-38.45-15.07-35.07-38.63ZM595.86,116.16c.4-2.77-1.52-4.99-4.04-5-8.96-.02-15.95,11.6-19.5,22.68,13.48-4.12,22.63-11.31,23.55-17.68Z"/>
      <path class="cls-1" d="M640.6,156.48l1.11-7.76c-.64.55-1.88,1.38-3.08,1.93-1.48.55-3.24,1.1-5.2,1.09-6.16-.02-10-4.46-9.13-10.56.4-2.77,1.56-4.99,3.23-6.92l19.58-23.24,10.07-70.12c3.06-21.34,10.49-37.96,29.81-37.91,16.52.04,22.57,16.42,20.23,32.77-5.21,36.31-27.03,65.36-41.53,84.46l-4.81,33.54c-.76,5.27.21,8.32,4.69,8.33,7,.02,17.03-11.32,24.86-21.01l3.4-4.15c2.4-3.04,5.63-6.08,10.96-6.07,6.16.02,10,4.46,9.13,10.56-.56,3.88-3.27,7.2-4.59,8.58l-5.04,5.81c-5.04,5.81-8.35,9.41-14.35,14.1-12.95,10.23-21.55,11.59-29.67,11.57-15.4-.04-21.93-9.21-19.66-25ZM686.83,37.37c.8-5.54,1.31-14.97-2.61-14.98-4.2-.01-5.63,8.03-6.71,15.51l-6.17,42.96c5.27-9.41,13.22-27.69,15.49-43.49Z"/>
      <path class="cls-1" d="M709.17,156.66l1.11-7.76c-.64.55-1.88,1.38-3.08,1.93-1.48.55-3.24,1.1-5.2,1.1-6.16-.02-10-4.46-9.13-10.56.4-2.77,1.56-4.99,3.23-6.92l19.58-23.24,10.07-70.12c3.06-21.34,10.49-37.96,29.81-37.91,16.52.04,22.57,16.42,20.23,32.77-5.21,36.31-27.03,65.36-41.53,84.46l-4.81,33.54c-.76,5.27.21,8.32,4.69,8.33,7,.02,17.03-11.32,24.86-21.01l3.4-4.15c2.4-3.04,5.63-6.08,10.96-6.07,6.16.02,10,4.46,9.13,10.56-.56,3.88-3.27,7.2-4.59,8.58l-5.04,5.81c-5.04,5.81-8.35,9.41-14.35,14.1-12.95,10.23-21.55,11.59-29.67,11.57-15.4-.04-21.93-9.21-19.66-25ZM755.4,37.55c.8-5.54,1.31-14.97-2.61-14.98-4.2-.01-5.63,8.03-6.71,15.51l-6.17,42.96c5.27-9.41,13.22-27.69,15.49-43.49Z"/>
      <path class="cls-1" d="M763.46,137.11c3.7-25.77,25.76-44.85,52.64-44.78s43.45,19.25,39.75,45.02c-.44,3.05-1.16,6.1-2.11,8.87,4-2.49,7.88-6.08,11.91-10.78,2.32-2.49,5.64-4.14,9.28-4.13,6.16.02,10,4.46,9.13,10.56-.28,1.94-.8,3.6-1.84,4.99-11.99,15.22-25.54,21.84-43.82,22.34-9.55,8.02-21.71,12.7-35.15,12.66-26.88-.07-43.49-18.97-39.79-44.74ZM811.92,162.47c-8.61-6.4-11.33-16.67-9.94-26.37,1.47-10.25,7.66-20.22,16.94-24.36-1.64-.28-3.56-.56-5.52-.57-15.4-.04-27.59,10.74-29.78,25.98-2.19,15.24,6.94,25.8,22.34,25.84,1.96,0,3.92.01,5.96-.54ZM835.7,137.3c.56-3.88.55-11.64-5.05-11.66-2.8,0-6.04,3.03-6.83,8.58-.99,6.93,2.49,11.93,8.01,14.44,1.88-3.32,3.27-7.2,3.87-11.36Z"/>
      <path class="cls-1" d="M124.79,407.2l22.64-157.7c.95-6.65,4.27-10.25,10.71-10.23,4.48.01,7.64,3.35,10.17,7.24l90.98,131.11,18.3-127.49c.95-6.65,6.27-10.52,12.15-10.51,5.88.02,10.08,3.91,9.13,10.56l-22.64,157.7c-.95,6.65-4.27,10.25-10.71,10.23-4.48-.01-7.64-3.35-10.17-7.24l-90.94-131.38-18.34,127.77c-.96,6.65-6.27,10.52-12.15,10.5-5.88-.02-10.08-3.91-9.13-10.56Z"/>
      <path class="cls-1" d="M300.28,379.66c2.98-20.79,19.92-50.96,44.56-50.9,15.68.04,23.37,10.88,21.42,24.46-2.67,18.57-20.74,31.28-45.41,35.37,1.88,6.38,7.77,10.28,17.29,10.3,12.88.03,23.59-8.26,33.82-20.98l3.4-4.15c2.4-3.04,5.64-6.08,10.96-6.07,6.16.02,10,4.46,9.13,10.56-.56,3.88-3.59,7.48-4.59,8.58l-5.04,5.81c-14.11,16.32-31.98,25.7-50.46,25.65-25.76-.07-38.45-15.07-35.07-38.63ZM346.1,353.16c.4-2.77-1.52-4.99-4.04-5-8.96-.02-15.95,11.6-19.5,22.68,13.48-4.12,22.63-11.31,23.55-17.68Z"/>
      <path class="cls-1" d="M424.46,373.88c.11-6.65-.29-15.53-5.61-15.54-3.92,0-8.64,5.52-19.79,18.8l-5.75,6.92c-3.04,3.6-7.12,4.7-9.64,4.69-6.16-.02-10-4.46-9.13-10.56.44-3.05,1.56-4.99,3.23-6.92,15.42-19.64,29.17-35.41,44.29-35.37,21,.05,22.89,18.08,22.83,32.22-.11,16.36.3,31.05,16.82,31.1,14.56.04,22.79-16.3,26.92-45.12.88-6.1,5.99-10.52,12.15-10.5,6.16.02,10,4.46,9.13,10.56-4.69,32.71,1.64,45.2,15.36,45.23,5.88.02,11.28-2.47,16.03-6.34-8.09-10-11.94-24.15-10.07-37.18,2.71-18.85,15.02-26.58,27.06-26.55,19.04.05,21.42,20.57,19.63,33.05-1.15,8.04-4.11,16.9-8.62,24.93h1.96c10.36.03,17.88-5.49,25.95-14.9,2.04-2.49,5.64-4.14,9.28-4.13,6.16.02,10,4.46,9.13,10.56-.4,2.77-1.8,4.71-3.19,6.65-10.91,13.56-25.18,21.28-43.94,21.23-4.48-.01-8.56-.85-12.56-2.25-9.07,8.57-20.27,14.36-33.43,14.33-12.04-.03-23.76-4.22-30.29-17.27-8.19,10.24-19.27,17.14-33.27,17.1-21.84-.06-35.21-8.41-34.47-44.73ZM557.77,362.31c.76-5.27,1.11-13.58-2.25-13.59-3.08,0-3.36,1.93-4.11,7.2-.88,6.1.09,13.03,2.89,18.86,1.72-4.15,2.87-8.31,3.47-12.47Z"/>
      <path class="cls-1" d="M684.72,408.66l22.6-157.43c.96-6.65,6.27-10.52,12.15-10.5,5.88.01,10.08,3.91,9.13,10.56l-22.6,157.43c-.96,6.65-6.27,10.52-12.15,10.5-5.88-.02-10.08-3.91-9.13-10.56Z"/>
      <path class="cls-1" d="M742.51,394.4l1.15-8.04c-.96.83-2.2,1.66-3.4,2.21-1.8.83-3.8,1.1-4.92,1.1-6.16-.02-10-4.46-9.13-10.56.44-3.05,1.56-4.99,3.23-6.92l19.62-23.52,2.31-16.08-7.28-.02c-5.88-.02-9.2-4.18-8.37-10,.8-5.54,5.27-9.41,11.15-9.4l7.28.02,4.69-32.71c.88-6.1,6.19-9.97,11.23-9.95,5.6.01,9.52,3.91,8.65,10l-4.69,32.71,20.16.05c5.32.01,8.96,3.9,8.17,9.45-.84,5.82-5.63,9.97-11.23,9.95l-19.88-.05-8.47,59.04c-.76,5.27.21,8.32,4.69,8.33,7,.02,17.03-11.32,24.86-21.01l3.4-4.15c2.4-3.04,5.63-6.08,10.96-6.07,6.16.02,10,4.46,9.13,10.56-.56,3.88-3.27,7.2-4.59,8.58l-5.04,5.81c-5.04,5.81-8.35,9.41-14.35,14.1-12.95,10.22-21.55,11.59-29.67,11.57-15.4-.04-21.93-9.21-19.66-25.01Z"/>
      <path class="cls-1" d="M796.65,380.95c2.98-20.79,19.92-50.96,44.56-50.9,15.68.04,23.37,10.87,21.42,24.45-2.67,18.57-20.74,31.28-45.41,35.37,1.88,6.38,7.77,10.28,17.29,10.3,12.88.03,23.59-8.26,33.82-20.98l3.4-4.15c2.4-3.04,5.63-6.08,10.96-6.07,6.16.02,10,4.46,9.13,10.56-.56,3.88-3.59,7.48-4.59,8.58l-5.04,5.81c-14.11,16.32-31.98,25.7-50.46,25.65-25.76-.07-38.45-15.07-35.07-38.63ZM842.47,354.46c.4-2.77-1.52-4.99-4.04-5-8.96-.02-15.95,11.6-19.5,22.68,13.48-4.12,22.63-11.31,23.55-17.68Z"/>
      <path class="cls-1" d="M909.98,409.81l6.84-47.67c.6-4.16.63-6.38-1.04-6.38-1.68,0-5.08,4.15-7.79,7.47-1.08,1.66-5.48,6.92-12.55,15.22l-5.75,6.92c-3.04,3.6-7.12,4.69-9.64,4.69-6.16-.02-10-4.46-9.13-10.56.44-3.05,1.56-4.99,3.23-6.92l24.94-29.32c7.39-8.58,14.19-12.99,22.03-12.97,8.96.02,14.2,4.47,15.81,12.79,7.55-7.74,17.51-12.71,26.47-12.68,12.32.03,18.96,4.49,21.81,11.98,8.03-7.19,18.23-11.88,27.47-11.85,20.44.05,25.37,12.54,22.82,30.28l-4.54,31.6c-.76,5.27.49,8.32,4.69,8.33,7,.02,17.03-11.32,24.86-21.01l3.4-4.15c2.4-3.04,5.64-6.08,10.96-6.07,6.16.02,10,4.46,9.13,10.56-.56,3.88-3.55,7.2-4.87,8.58l-5.03,5.81c-5.04,5.81-8.35,9.41-14.07,14.1-12.71,10.5-21.55,11.59-29.67,11.57-15.4-.04-21.93-9.21-19.66-25.01l4.62-32.15c1.03-7.21.19-13.03-6.81-13.05-9.8-.03-19.71,10.48-24.18,24.06l-5.17,36.03c-.88,6.1-6.19,9.96-11.51,9.95-5.04-.01-9.24-3.91-8.37-10l6.84-47.67c.99-6.93-.17-12.48-6.89-12.5-8.96-.02-20.75,11.87-24.46,26l-4.89,34.09c-.88,6.1-5.91,9.97-11.51,9.95-5.04-.01-9.24-3.91-8.37-10Z"/>
    </g>
  </g>
</svg>