<?xml version="1.0" encoding="UTF-8"?>
<svg id="_レイヤー_1" data-name="レイヤー 1" xmlns="http://www.w3.org/2000/svg" viewBox="0 0 1200 1100">
  <defs>
    <style>
      .cls-1 {
        stroke-width: 2px;
      }

      .cls-1, .cls-2, .cls-3 {
        stroke-miterlimit: 10;
      }

      .cls-1, .cls-3 {
        fill: #2a8c2e;
        stroke: #fff;
      }

      .cls-2 {
        fill: #fff;
        stroke: #000333;
      }
    </style>
  </defs>
  <g>
    <path class="cls-2" d="M108.51,232.95q-.13.02-.13.16c0,.13.13.38.13.65.26,1.16.26,2.51.26,3.99,0,19.89-17.77,55.7-46.99,60.88-11.97,2.12-22.79-2.81-22.79-22.83,0-21.1,9.53-40.66,21.11-62.2.26-.45.26-.58.26-.72s0-.27-.26-.22c-.13.02-.26.18-.51.23-2.06.9-6.44,2.49-9.91,3.1-6.57,1.17-8.63-1.7-8.63-5.19,0-3.22,2.45-7.02,6.82-7.8.39-.07.9-.16,1.42-.12,1.54,0,3.09-.28,4.89-.6,3.73-.66,7.85-1.93,12.23-4.05,8.63-4.22,6.82-4.44,11.84-6.94,1.03-.45,1.8-.72,2.7-.88,3.73-.66,5.92,1.91,5.92,5.13,0,2.69-1.67,5.94-5.02,7.88-7.21,4.1-30.64,41.32-30.64,67.12,0,11.83,5.28,15.32,12.1,14.11,12.62-2.24,33.47-21.39,33.47-50.55,0-4.3-.52-7.7-1.29-9.98-.52-1.66-2.32-4.43-3.48-6.64-.77-1.48-1.16-2.89-1.16-4.23,0-3.9,2.96-7.11,6.31-7.7,2.83-.5,5.92.83,7.85,5.06,4.38,9.3,12.36,15.01,26.01,18.5,3.35.88,4.89,3.43,4.89,6.25,0,3.49-2.57,7.44-6.82,8.2-7.85,1.39-19.7-9.67-19.7-9.67-.52-.58-.77-.94-.9-.92Z"/>
    <path class="cls-2" d="M186.14,222.67c-5.54-2.11-6.69-6.34-6.69-13.86,0-2.15.13-4.59.26-7.3.26-6.23.39-11.09.39-15.12,0-5.91-.26-9.76-.9-12.74-.13-.65-.13-1.19-.13-1.72,0-3.9,2.83-6.42,5.92-6.96,7.85-1.39,8.24,6.33,8.24,15.34,0,3.76-.26,8.51-.77,15.32-.26,4.21-.64,7.64-.64,10.33,0,8.33,5.28,8.2,9.14,7.52,1.93-.34,2.19-1.46,3.73-2.27.64-.38,1.42-.65,2.06-.77,3.35-.59,6.44,1.81,6.44,5.31,0,2.29-1.42,5.09-4.76,7.83-4.38,3.6-14.68,9.99-20.6,14.41-9.78,7.38-14.16,13.93-14.16,18.91,0,5.38,5.67,10.15,18.92,7.8,2.06-.37,12.23-2.3,17.9-7.48,2.06-1.84,4.25-2.9,6.05-3.22,4.25-.75,7.34,1.92,7.34,5.55,0,8.33-15.06,15.71-28.32,18.06-23.3,4.13-33.73-5.57-33.73-17.13,0-9.68,7.08-21.95,22.66-33.85.26-.18,3.35-2.47,4.38-3.33-.77,0-1.8-.22-2.7-.6Z"/>
    <path class="cls-2" d="M264.03,267.44c-3.99.71-6.57-2.06-6.57-5.42,0-2.42,1.42-5.22,4.76-7.3,26.39-15.97,33.73-37.29,33.73-56.38,0-6.72-.9-13.01-2.19-18.83-1.29-6.09-4.12-8.14-7.21-7.59-3.22.57-6.69,3.88-9.53,8.14-5.54,8.51-6.82,17.87-7.08,29.88-.26,7.3-3.6,11.12-6.82,11.69-6.44,1.14-6.44-7.73-6.44-9.61,0-9.81,3.35-23.17,5.15-29.81,1.93-7.2,5.15-17.58,6.69-26.05.64-3.47,2.96-5.23,5.41-5.66,3.48-.62,7.34,1.52,7.34,5.69,0,.4-.13.83-.13,1.23-.64,4.68-2.32,6.59-3.99,10.11-.9,1.64-1.03,2.2-.9,2.18.26-.05,1.03-.99,1.93-2.09,3.86-4.58,7.85-7.17,11.59-7.83,15.45-2.74,19.31,23.45,19.31,37.43,0,22.44-9.4,48.57-41.07,68.57-1.42.92-2.7,1.42-3.99,1.65Z"/>
    <path class="cls-2" d="M411.82,234.1c-.39.07-.77.14-1.29.23-27.94,2.27-45.57-14.76-45.57-35.45,0-5.24,1.16-14.58,9.27-26.24.39-.61.64-1.05.64-1.32,0-.13-.13-.25-.26-.22-.26.05-.77.41-1.29.77-20.21,14.47-22.66,15.71-25.49,16.21-4.76.84-7.85-2.1-7.85-5.86,0-2.69,1.8-5.96,5.92-8.04,2.7-1.42,10.04-5.01,13.9-7.17,6.05-3.36,16.74-8.75,29.48-16.25,9.53-5.59,22.14-12.26,34.12-14.39,6.44-1.14,8.75,1.54,8.75,5.03,0,6.85-5.41,9.29-10.3,10.16-.9.16-1.93.34-2.96.39-1.03.05-2.06.23-3.09.41-19.95,3.54-39.52,24.75-39.52,42.76,0,16.13,14.68,27.23,34.89,23.64,6.44-1.14,9.53,2.21,9.53,6.24,0,3.76-2.96,8.05-8.88,9.1ZM422.89,184.96c-1.8-1.83-8.24-5.66-10.94-6.39-2.32-.53-3.22-1.98-3.22-3.6,0-2.69,2.45-5.68,5.66-6.25,1.67-.3,17.38,3.1,17.38,10.09,0,3.36-2.83,6.82-5.54,7.3-1.16.21-2.32-.13-3.35-1.15ZM437.7,171.18c-1.8-1.83-8.5-5.35-11.2-5.94-2.32-.53-3.35-1.96-3.35-3.57,0-2.69,2.45-5.81,5.66-6.38,2.06-.37,17.51,2.67,17.51,9.66,0,3.36-2.58,6.77-5.41,7.27-1.03.18-2.19-.15-3.22-1.04Z"/>
    <path class="cls-2" d="M479.41,227.48c-3.22-4.4-10.3-9.33-15.84-11.3-2.45-.91-3.48-2.74-3.48-4.76,0-3.09,2.32-6.32,6.05-6.99,4.51-.8,25.1,7.37,25.1,16.51,0,4.3-3.48,8.01-6.95,8.62-1.8.32-3.6-.3-4.89-2.09Z"/>
  </g>
  <g>
    <path class="cls-2" d="M552.01,178.13c-4.51.8-10.04-.37-15.32-4.27-13-9.38-16.74-27-18.8-37.12-1.03-4.92-2.45-12.87-2.45-13.94,0-3.9,3.22-7.02,6.44-7.59,2.7-.48,5.54.9,6.44,5.17.77,4.16,1.03,8.69,1.8,12.85,5.28,30.38,17.38,29.44,18.15,29.3,1.29-.23,2.45-1.51,3.6-4.94s2.06-7.49,3.6-12.06c1.03-2.87,2.83-4.27,4.76-4.61,3.35-.59,6.82,1.88,6.82,5.51,0,.4-.13.69-.13,1.1-.77,4.57-3.35,13.76-3.73,18-.64,6.83-5.15,11.53-11.2,12.6ZM601.45,138.85c-1.16-8.8-8.24-18.56-16.87-24.15-1.54-.94-2.19-2.43-2.19-3.91,0-2.82,2.45-5.94,5.79-6.54,1.67-.3,3.6.03,5.41,1.33,5.41,3.88,21.37,15.83,21.37,29.4,0,4.97-3.6,8.3-7.08,8.92-2.96.53-5.92-.96-6.44-5.04Z"/>
    <path class="cls-2" d="M637.5,143.74c-3.6.64-5.92-2.04-5.92-5.13,0-2.28,1.16-4.77,4.12-6.51,4.38-2.52,10.04-6.22,15.83-9.93,8.63-5.56,19.57-12.48,29.74-14.28,14.81-2.63,23.3,7.02,23.3,17.64,0,22.84-38.24,41.59-46.99,43.14-3.99.71-6.31-1.97-6.31-5.06,0-2.55,1.67-5.4,5.28-6.58,21.5-6.91,36.05-20.1,36.05-29.78,0-3.23-2.96-10.23-12.1-8.6-6.31,1.12-14.55,6.21-24.98,13.44-13.65,9.95-15.84,11.27-18.02,11.66Z"/>
    <path class="cls-2" d="M762.5,152.34c-25.75,4.57-26.78-10.84-26.78-24.14,0-15.32,1.55-35.08,1.55-50.94,0-5.78-.26-10.97-.77-15.18,0-.4-.13-.92-.13-1.32,0-4.43,3.35-7.31,6.69-7.91s6.82,1.07,7.21,5.17c.26,2.91.39,6.11.39,9.61,0,16.53-2.7,38.11-2.7,56.11,0,11.02.51,17.65,13.26,15.39,14.16-2.51,28.32-10.94,30.77-12.45,1.54-.95,2.83-1.44,3.99-1.65,3.99-.71,6.31,1.97,6.31,5.33s-1.93,7.06-6.31,9.59c-2.83,1.58-16.74,9.42-33.47,12.39Z"/>
    <path class="cls-2" d="M849.27,106.98c-.39-18.61-.9-26.72-2.19-39.79v-.81c0-3.49,2.7-5.85,5.54-6.36,2.83-.5,5.79.85,5.92,4.59.26,4.39.39,8.4.51,12.68,2.57-.73,5.02-1.83,7.47-3.88,1.16-1.01,2.45-1.64,3.6-1.85,3.35-.59,6.05,1.88,6.05,4.97,0,5.38-7.21,8.53-14.16,10.98l-2.7.88c.13,4.68.13,9.79.13,15.83,0,2.42,0,5.78-.13,9.03,11.07,3.81,12.49,7.46,12.49,10.15,0,3.63-2.58,7.31-5.67,7.86-1.54.27-3.09-.26-4.63-1.73-1.42-1.36-2.96-2.7-4.63-3.88-2.83,5.74-8.62,11.34-15.32,12.53-9.53,1.69-17.38-6.19-17.38-12.91,0-5.78,5.15-11.8,15.19-13.58,3.22-.57,6.57-.63,9.91-.42v-4.3ZM839.75,121.03c-1.42.25-5.15,1.18-5.15,3.33,0,2.28,3.6,4.2,6.31,3.72,2.96-.53,5.66-3.02,6.95-6.61-2.83-.71-5.66-.88-8.11-.44Z"/>
    <path class="cls-2" d="M914.03,119.95c-2.45-7.76-3.35-16.34-3.35-25.07,0-23.65,6.57-47.93,7.21-57.32.39-4.64,3.22-7.02,6.18-7.55,3.22-.57,6.44,1.14,6.44,4.77,0,.27,0,.67-.13,1.1-1.8,10.13-8.37,36.16-8.37,49.46,0,4.97.9,5.35,1.29,5.28.26-.05.64-.38.9-1.1,3.99-8.64,4.89-10.41,7.6-10.89,2.7-.48,5.28,1.75,5.28,4.71,0,.81-.13,1.64-.64,2.53-6.18,12.25-9.66,22.95-9.66,26.98,0,1.21.13,2.4.13,3.61,0,6.58-5.02,7.88-6.44,8.13-2.57.46-5.28-.81-6.44-4.64ZM985.61,106.44c-22.27,3.95-39.27-6.88-39.27-13.46,0-3.49,3.09-6.86,6.69-7.5,1.93-.34,3.99.1,5.79,1.93,5.41,5.36,14.55,6.42,24.98,4.57,3.6-.64,7.21-1.55,10.94-2.75.51-.23,1.03-.32,1.54-.41,4.38-.78,6.44,1.95,6.44,5.31,0,6.99-5.66,10.28-17.12,12.31ZM971.06,50.03c-5.67,1.01-11.72,1.54-17.38,1.07-3.86-.26-5.41-2.53-5.41-5.09,0-3.23,2.45-6.75,5.92-7.37.39-.07.77-.14,1.29-.09,4.25.19,8.5-.16,12.49-.87,5.54-.98,10.81-2.59,15.84-4.15.39-.07.77-.27,1.16-.34,3.99-.71,6.18,1.99,6.18,5.22,0,5.38-3.61,8.7-20.08,11.63Z"/>
    <path class="cls-2" d="M1039.94,107.28c-3.22-4.4-10.3-9.33-15.84-11.3-2.45-.91-3.48-2.74-3.48-4.76,0-3.09,2.32-6.32,6.05-6.99,4.51-.8,25.11,7.37,25.11,16.51,0,4.3-3.48,8.01-6.95,8.62-1.8.32-3.6-.3-4.89-2.09Z"/>
  </g>
  <g>
    <path class="cls-2" d="M55.02,507.24c-3.29.58-6.29-1.12-6.29-4.56,0-1.2.43-2.62,1.29-4.26,4.01-7.43,7.44-18.34,8.44-27.18.43-3.66,3-5.76,5.72-6.24,3.29-.58,6.58,1.22,6.58,5.4,0,3.58-4.15,22.84-9.44,32.14-1.57,2.82-4.01,4.29-6.29,4.7ZM74.19,506.97l.43-52.04c-1.14.35-14.88,4.88-18.31,5.49-3.43.61-5.29-2.05-5.29-5.03,0-2.69,1.57-5.66,4.72-6.36,2-.5,4.43-1.09,7.15-1.72,2.72-3.62,5.72-8.03,8.73-12.75-5.01-4.19-13.16-9.01-16.74-10.77-2-.99-2.72-2.65-2.72-4.29,0-2.99,2.43-6.41,5.87-7.01,1-.18,1.57-.13,4.15.76,4.15-7.46,9.15-19.1,11.16-27.51.71-3.11,3.15-4.74,5.72-5.2,3.72-.66,7.58,1.04,7.58,4.78,0,5.08-12.02,28.26-14.88,33.1,2.29,1.54,4.58,3.07,6.58,4.66,4.58-8.28,8.73-16.78,11.16-23.33,1-2.87,3.29-4.32,5.58-4.72,3.58-.63,7.3,1.39,7.3,5.28,0,4.78-14.88,29.97-23.46,42.54,5.15-1.51,10.16-2.85,13.59-3.9-2.72-3.55-3.29-4.34-3.29-5.84,0-2.69,2.72-5.26,5.58-5.77,6.87-1.22,14.45,13.71,14.45,18.19s-3.29,7.75-6.44,8.31c-2.86.51-4.58-1.73-6.01-6.55-2.15.83-5.58,2.18-9.44,3.47l.29,53.85c0,4.63-3.43,7.63-6.87,8.24-3.29.58-6.58-1.07-6.58-5.7v-.15ZM102.8,486.22c-2.43.43-4.58-.53-5.15-3.57-1-5.8-4.15-12.55-6.58-16.45-.57-.79-.72-1.67-.72-2.56,0-2.84,2.72-5.41,5.72-5.94,1.57-.28,3.15.04,4.43,1.15,4,3.92,9.44,15.5,9.44,19.38,0,4.18-3.72,7.38-7.15,7.99ZM104.09,501.97c-4.43.79-6.58-2.12-6.58-5.4s2.15-6.8,6.58-7.59l26.46-4.55v-85.56l-18.6,3.45c-4.43.79-6.58-2.12-6.58-5.4s2.15-6.8,6.58-7.59l54.64-9.69c4.58-.81,6.87,2.07,6.87,5.35s-2.29,6.83-6.87,7.64l-22.17,3.78v85.56l28.04-5.12c4.58-.81,6.87,2.07,6.87,5.35s-2.29,6.83-6.87,7.64l-68.38,12.13Z"/>
    <path class="cls-2" d="M265.01,393.53c-1.72-1.34-2.86-1.88-4.15-1.65-1.14.2-2.29,1.15-3.72,3.05-18.02,22.76-44.77,47.22-51.78,48.46-4.29.76-6.87-2.36-6.87-6.1,0-2.84,1.43-5.78,4.72-7.86,16.16-10.03,33.76-27.49,44.34-41.17,3.72-4.84,8.01-7.84,12.59-8.65,4.43-.79,9.01.49,13.88,3.96,13.59,10.13,28.32,17.67,44.92,22.04,3.29.91,4.72,3.34,4.72,6.03,0,3.88-2.72,8.1-7.15,8.88-8.3,1.47-34.47-13.59-51.5-27ZM286.9,368.74v5.53c0,4.03-3.43,6.73-6.72,7.31-3.29.58-6.58-.77-6.58-4.51v-5.97l-26.46,4.7v5.53c0,4.03-3.43,6.73-6.72,7.31-3.29.58-6.44-.8-6.44-4.53v-5.97l-27.61,5.05c-4.15.74-6.29-2.17-6.29-5.45s2.15-6.8,6.29-7.54l27.61-4.75v-7.91c0-3.88,3.29-6.41,6.72-7.02,3.15-.56,6.44.8,6.44,4.68v7.91l26.46-4.7v-7.91c0-3.88,3.43-6.43,6.72-7.02,3.29-.58,6.58.77,6.58,4.66v7.91l28.61-5.23c4.15-.74,6.29,2.17,6.29,5.3s-2.15,6.95-6.29,7.69l-28.61,4.93ZM215.8,483.49c-4.15.74-7.15-2.61-7.15-6.35,0-2.54,1.43-5.33,4.58-7.23,8.15-4.73,15.16-11.5,20.46-20.06,1.29-2.17,3-3.22,4.58-3.5,3.58-.63,6.87,2.37,6.87,6.25,0,7.91-23.75,29.9-29.32,30.89ZM267.73,433.66l.14,39.1c0,4.63-3.29,7.45-6.58,8.04-3.43.61-6.72-1.05-6.72-5.68l.14-39.15-24.03,4.41-.14.03c-4.01.71-6.01-1.92-6.01-5.06s2.15-6.65,6.15-7.36l24.03-4.11v-11.2c0-4.78,3.29-7.75,6.44-8.31,3.29-.58,6.58,1.22,6.58,6v11.2l24.6-4.51c3.86-.69,5.87,2.1,5.87,5.08,0,3.14-2,6.63-5.87,7.31l-24.6,4.22ZM299.34,464.34c-4.72-5.58-12.3-9.76-19.88-12.15-2.57-.89-3.72-2.77-3.72-5.02,0-3.58,2.72-7.65,6.44-8.31,3.58-.63,19.02,4.99,27.18,12.5,1.72,1.64,2.43,3.6,2.43,5.54,0,4.33-3.58,8.85-7.3,9.51-1.72.3-3.58-.26-5.15-2.07Z"/>
    <path class="cls-2" d="M398.4,408.27c0,2.28,0,4.7-.26,7.44-.39,5.44-3.86,8.88-6.95,9.43-2.83.5-5.28-1.21-5.28-5.38v-1.21c.39-3.29.51-6.41.51-9.1-2.7,1.96-14.68,10.67-14.68,19.13,0,2.29,1.03,10.03,14.16,7.7,5.92-1.05,12.49-3.83,16.22-5.7,1.16-.61,2.32-.95,3.22-1.11,4.25-.75,6.69,1.9,6.69,5.13,0,2.82-1.03,9.86-23.04,13.76-21.11,3.75-28.84-6.44-28.84-16.25,0-16.39,18.28-29.85,24.98-34.67-1.54-4.97-4.12-7.2-7.6-6.58-2.06.37-4.25,1.56-6.69,3.61-5.41,7.27-8.63,9.73-11.46,10.23-3.09.55-5.54-1.17-5.54-4.12,0-1.61.77-3.77,2.96-6.04,6.95-7.68,10.43-11.66,16.48-23.35-2.32.81-4.38,1.31-6.31,1.66-13,2.31-13.13-5.2-13.13-6.27,0-3.09,2.19-6.3,5.28-6.85,1.42-.25,2.96.01,4.63.92,1.16.6,2.83.57,4.76.23,1.03-.18,4.38-.91,10.17-3.28,1.16-3.7,1.67-6.34,2.32-11.03.52-3.45,2.83-5.21,5.41-5.66,3.35-.59,6.95,1.19,6.95,4.68,0,1.61-.52,3.85-.77,5.11,3.86-2.7,4.38-2.93,5.28-3.09,3.09-.55,5.54,1.71,5.54,4.93,0,4.43-3.35,7.72-16.74,13.45-1.93,4.51-4.51,9.54-7.34,14.74,7.08-1.26,12.87,1.88,16.22,9.75,16.22-10.13,27.55-15.77,29.74-16.16,4.63-.82,7.21,2.35,7.21,5.71,0,2.15-1.16,4.51-3.48,5.86-3.99,2.46-8.24,3.75-14.93,7.08-5.41,2.71-10.94,5.84-15.96,8.88.26,1.97.26,4.12.26,6.41Z"/>
    <path class="cls-2" d="M573.2,384.84l-41.77,6.52c14.45,9.08,29.18,12.89,45.35,16.29,3.15.64,4.43,2.65,4.43,5.04,0,3.88-3.72,8.72-8.44,9.56-5.15.91-29.32-7.79-47.63-20.67l.29,27.72v.15c0,3.73-3.43,6.28-6.72,6.87-3.43.61-6.72-.75-6.72-4.48v-.15l.29-27.53c-16.59,18.32-43.49,37.58-48.49,38.47-4.15.74-7.15-2.02-7.15-5.45,0-2.24,1.43-4.88,4.72-6.81,17.31-10.09,30.47-19.89,44.06-34.4l-40.48,8.08-.14.02c-4.01.71-6.01-2.07-6.01-5.21s2-6.63,6.15-7.36l47.21-8.38-.14-4.16c-.14-3.71,2.43-7,6.72-7.76,3.43-.61,6.72.9,6.72,5.08v4.48l47.78-8.48c4.15-.74,6.15,2.04,6.15,5.18s-2,6.63-6.01,7.34l-.14.03ZM463.91,381.23c-4.15.74-6.58-2.42-6.58-6,0-2.54,1.43-5.33,4.43-6.91,10.01-5.06,12.73-6.59,20.74-13.24,1-.78,2-1.25,2.86-1.4,3.15-.56,5.44,2.17,5.44,5.46,0,1.94-.86,4.18-2.72,5.86-10.58,9.49-21.6,15.78-24.17,16.24ZM478.93,343.63c-4.86-3.62-11.16-6.83-14.45-8.04-2.15-.81-3-2.3-3-4.1,0-3.43,3.15-7.58,6.87-8.24,6.01-1.07,19.02,7.52,19.02,7.52,1.72,1.34,2.43,3.3,2.43,5.24,0,4.03-2.86,8.12-6.44,8.76-1.43.25-3-.06-4.43-1.15ZM543.01,324.79c.14,5.35.43,12.47.43,19.04,0,3.88-.14,7.49-.29,10.35-.29,6.02-3.72,11.86-11.44,13.98-3.15.86-9.73,2.32-15.59,3.36-10.3,1.83-21.03,3.58-21.46-7.99-.14-3.71-.14-9.38-.14-14.91s0-11.2.14-14.81c.14-5.85,3.86-11.44,11.44-13.23,1.14-.2,2.72-.63,4.58-.96.72-2.96,1.43-6.82,1.86-9.74.57-3.98,3.72-6.33,6.72-6.87,3.58-.63,7.29,1.09,7.29,4.98,0,1.79-1.29,6.35-2.29,9.07,7.01-1.24,18.45-3.27,18.74,7.73ZM531.43,336.55c0-2.69-.14-5.2-.14-7.14-.14-3.41-.29-3.83-12.16-1.73-3.58.63-7.15,1.27-8.58,1.67-4.43,1.09-4.43,3.18-4.43,11.69l25.32-4.49ZM506.11,351.35c0,3.29,0,5.97.14,7.74.29,3.98,3.58,3.4,12.87,1.75,3.58-.63,7.01-1.24,8.44-1.65,3.86-.98,3.86-3.67,3.86-12.33l-25.32,4.49ZM552.6,333.54c-3.58.63-6.29-2.32-6.29-5.6,0-1.79.86-3.74,3-5.16,4.72-3.08,10.73-8.62,15.73-14.29,1.57-1.77,3.15-2.8,4.72-3.08,3.72-.66,6.72,2.39,6.72,6.27,0,1.94-.86,4.03-2.72,6.01,0,0-15.88,14.91-21.17,15.85ZM567.05,359.8c-5.15-3.71-10.44-6.36-15.59-7.69-2.86-.69-4.01-2.43-4.01-4.52,0-3.14,2.86-6.63,6.72-7.31,6.58-1.17,18.88,5.01,21.03,6.27,2.29,1.54,3.29,3.75,3.29,5.99,0,3.88-2.86,7.82-6.58,8.48-1.43.25-3.15-.04-4.86-1.23Z"/>
    <path class="cls-2" d="M640.67,400.63c-25.75,4.57-26.78-10.84-26.78-24.14,0-15.32,1.54-35.08,1.54-50.94,0-5.78-.26-10.97-.77-15.18,0-.4-.13-.92-.13-1.32,0-4.43,3.35-7.31,6.69-7.91,3.35-.59,6.82,1.07,7.21,5.17.26,2.91.39,6.11.39,9.61,0,16.53-2.7,38.11-2.7,56.11,0,11.02.52,17.65,13.26,15.39,14.16-2.51,28.32-10.94,30.77-12.45,1.54-.95,2.83-1.44,3.99-1.65,3.99-.71,6.31,1.97,6.31,5.33s-1.93,7.06-6.31,9.59c-2.83,1.58-16.74,9.42-33.47,12.39Z"/>
    <path class="cls-2" d="M743.53,287.91c.39-.07.64-.25,1.03-.32,2.96-.53,5.41,1.86,5.41,4.95,0,4.03-2.57,5.83-7.85,9.59-.9,7.01-1.42,16.11-1.8,23.03,1.29,1.79,2.06,4.07,2.06,6.76,0,1.88-.39,3.97-1.16,6.25-1.54,4.44-5.02,10.84-7.21,16.33-1.03,2.6-1.55,4.98-1.55,7.13,0,8.2,7.98,10.54,15.71,9.17,9.66-1.71,23.95-11.64,23.95-21.18,0-2.15-.39-3.56-3.73-15.33-.26-.9-.39-1.81-.39-2.62,0-4.03,2.96-6.71,6.05-7.26,2.7-.48,5.54.63,6.57,3.81,5.15,15.21,5.15,19.38,5.15,20.05,0,15.99-22.27,32.04-37.72,34.78-11.33,2.01-27.42-1.72-27.42-17.17,0-3.09.64-6.57,1.8-10.27-8.75.34-12.62-9.45-12.62-16.44,0-9.41,6.57-17.43,14.81-18.89,1.42-.25,3.09-.28,4.63-.15.39-3.97.64-8.18,1.03-11.74-2.83,1.17-5.28,1.74-7.21,2.08-7.72,1.37-11.33-.54-11.33-4.71,0-2.55,1.54-6.46,5.54-7.16.64-.11,1.42.02,2.32.13,1.29.31,2.83.17,4.51-.13,2.19-.39,4.64-1.23,6.95-2.31-.13-3.47-.77-5.91-.9-8.04v-.94c0-4.57,3.09-7.27,6.31-7.84,3.35-.59,6.95,1.18,7.08,5.73v2.69ZM724.22,331.51c-2.83.5-4.38,3.06-4.38,5.88,0,4.43,2.19,6.47,4.25,6.1,3.73-.66,5.79-8.28,5.79-9.09,0-1.21-.77-1.34-1.16-2.21-1.03-.62-2.45-1.04-4.51-.68ZM793.1,299.94c-3.86-2.41-6.69-3.52-8.75-3.15-2.19.39-3.73,2.14-5.28,5.5-1.29,2.65-3.22,3.93-5.15,4.27-3.35.59-6.69-1.63-6.69-5.53,0-4.84,6.18-14.27,17.12-16.21,9.53-1.69,18.92,2.69,18.92,8.2,0,3.49-2.83,7.09-6.31,7.7-1.16.21-2.58-.08-3.86-.79Z"/>
  </g>
  <g>
    <path class="cls-2" d="M149.78,886.78c-4.15-16.53-4.62-71.88,1.66-105.82l-24.79,6.22c-7.83,1.96-16.42-2.81-18.5-11.08-2.29-9.13,2.6-17.29,10.86-19.37l40.01-10.04c9-34.15,22.9-67.23,41.25-104.65-3.26,1.74-6.74,2.62-9.35,3.27-17.83,4.47-33.39,3.29-47.31,1.23-9.57-1.3-18.49-1.84-28.06.56-10,2.51-22.83,8.5-20.32,25.9,1.31,8.92-3.14,16.97-12.27,19.26-8.26,2.07-16.53-1.4-19.15-11.84-9.05-36.1,19.53-58.53,46.06-65.18,13.48-3.38,27.95-2.85,41.33-1.12,14.36,1.95,28.39,2.59,42.74-1.01,11.74-2.95,23.26-12.31,31.74-22.75,2.82-3.48,5.54-5.55,9.46-6.53,9.57-2.4,17.73,2.49,20.13,12.06,1.09,4.35-.1,8.81-1.62,11.96-25.41,49.83-45.28,90.41-58.08,129.68l19.14-4.8c9.13-2.29,17.29,2.6,19.58,11.73,2.07,8.26-3.25,16.53-11.95,18.71l-36.1,9.05c-7.37,33.28-9.41,67.54-4.92,107.56,1.2,10.33-3.79,16.21-12.49,18.39-8.26,2.07-16.31-.53-19.04-11.41Z"/>
    <path class="cls-2" d="M283.87,821.8c-.7-2.79-.61-6.88-.53-9.48l2.37-195.5c.17-8.18,3.73-13.14,11.39-15.06l47.32-11.87c49.06-12.31,94.93,6.89,108.46,60.82,20.95,83.51-28.95,150.02-107.58,169.74l-44.54,11.17c-9.74,2.44-14.97-2.16-16.89-9.82ZM338.83,794.7c64.02-16.06,102.26-70.03,85.51-136.84-9.16-36.54-39.02-50.87-73.46-42.23l-37.58,9.42-2.3,176.62,27.84-6.98Z"/>
    <path class="cls-2" d="M481.51,744.12c-9.16-36.54,13.6-77.01,52.22-86.7,11.83-2.97,23.92-3.41,35.32-.72.61-4.96,4.34-9.23,10.26-10.71,7.65-1.92,14.62,2.25,16.54,9.91.35,1.39.44,4.7.44,6.18l-1,56.47c-.08,5.57.09,7.74.7,10.18.61,2.44,2.53,4.17,5.31,3.48,6.96-1.75,16.95-17.94,28.51-41.18,2-3.83,4.52-7.05,9.39-8.27,7.66-1.92,14.62,2.25,16.54,9.91.87,3.48.53,6.52-.95,9.48-18.68,39.08-34.76,53.1-50.77,57.12-14.96,3.75-24.19.89-29.59-7.37-9.39,12.71-23.3,20.64-38.96,24.57-26.1,6.55-47.34-5.88-53.97-32.33ZM568.48,697.16l.25-16.71c-8.53-1.56-18.88-1.55-28.28.8-23.31,5.85-39.04,33.09-33.89,53.62,3.67,14.61,14.11,19.39,26.98,16.16,21.57-5.41,34.35-25.26,34.93-53.88Z"/>
    <path class="cls-2" d="M671.02,833.06c-7.24-28.88,13.53-53.69,37.26-79.99l8.35-9.49.33-26.71c-9.04,11.14-21.04,19.33-36.7,23.26-23.31,5.85-39.5-2.67-45-24.59-1.22-4.87-1.93-16.53-1.93-23.92l-.73-48.64c-.18-6.61,3.82-11.31,10.43-12.97,7.65-1.92,14.62,2.25,16.28,8.86.52,2.09.44,10.61.36,11.75l-.93,40.55c-.08,5.57.27,9.92,1.23,13.75,1.92,7.66,7.58,12.52,19.06,9.64,19.83-4.97,38.43-34.05,38.93-58.58l.58-34.54c.17-6.7,3.82-11.31,10.43-12.97,7.65-1.92,14.62,2.25,16.28,8.86.52,2.09.61,5.4.53,6.53l-2.45,89.01c14.25-18.37,22.68-33.43,36.15-59.37,2-3.83,4.52-7.05,9.39-8.27,7.65-1.92,14.62,2.25,16.54,9.91.87,3.48.53,6.52-.95,9.48-16.85,34.55-27.11,48.22-62.23,88.1l-1.26,53.94c-.76,27.93-11.54,43.95-32.07,49.1-16.01,4.01-33.15-3.89-37.86-22.68ZM715.72,806.32l.33-23.75c-13.39,15.93-23.47,30.3-20.33,42.82,1.22,4.87,5.31,6.43,9.14,5.47,7.31-1.83,10.61-10.8,10.86-24.54Z"/>
    <path class="cls-2" d="M815.29,680.75c-.79-3.13-.87-4.96-.88-6.44.08-5.57,3.65-10.53,9.56-12.01s12.01.69,14.45,5.99c1.57,3.3,3.83,4.96,8.01,3.91,7.31-1.83,11.13-8.71,8.69-18.45-2.71-10.79-14.63-17.04-27.25-23.12l-8.88-4.43c-2.25,10.18-6.16,22.62-12.94,36.9-1.91,4.18-4.87,7.14-9.74,8.36-7.65,1.92-14.62-2.25-16.54-9.91-1.05-4.18-.27-6.96,1.73-10.79,13.9-27.16,13.53-50.73,13.01-58.74-.61-6.87,3.82-11.31,10.43-12.97,7.65-1.92,14.53,1.9,16.19,8.51.96,3.83.61,5.4,1.66,9.57,1.83,7.31,10.88,12.43,21.85,17.82,14.27,6.78,31.42,16.16,35.79,33.56l.61,2.44c5.3-6.88,10.6-15.23,16.51-27.07,2-3.83,4.52-7.05,9.39-8.27,7.65-1.92,14.62,2.25,16.54,9.91.87,3.48.53,6.52-.95,9.48-22.85,47.52-53.9,57.9-68.86,61.65-21.92,5.5-35.33-3.71-38.38-15.89Z"/>
  </g>
  <g>
    <path class="cls-3" d="M101.04,228.47q-.13.02-.13.16c0,.13.13.38.13.65.26,1.16.26,2.51.26,3.99,0,19.89-17.77,55.7-46.99,60.88-11.97,2.12-22.79-2.81-22.79-22.83,0-21.1,9.53-40.66,21.11-62.2.26-.45.26-.58.26-.72s0-.27-.26-.22c-.13.02-.26.18-.51.23-2.06.9-6.44,2.49-9.91,3.1-6.57,1.17-8.63-1.7-8.63-5.19,0-3.22,2.45-7.02,6.82-7.8.39-.07.9-.16,1.42-.12,1.54,0,3.09-.28,4.89-.6,3.73-.66,7.85-1.93,12.23-4.05,8.63-4.22,6.82-4.44,11.84-6.94,1.03-.45,1.8-.72,2.7-.88,3.73-.66,5.92,1.91,5.92,5.13,0,2.69-1.67,5.94-5.02,7.88-7.21,4.1-30.64,41.32-30.64,67.12,0,11.83,5.28,15.32,12.1,14.11,12.62-2.24,33.47-21.39,33.47-50.55,0-4.3-.51-7.7-1.29-9.98-.52-1.66-2.32-4.43-3.48-6.64-.77-1.48-1.16-2.89-1.16-4.23,0-3.9,2.96-7.11,6.31-7.7,2.83-.5,5.92.83,7.85,5.06,4.38,9.3,12.36,15.01,26.01,18.5,3.35.88,4.89,3.43,4.89,6.25,0,3.49-2.57,7.45-6.82,8.2-7.85,1.39-19.7-9.68-19.7-9.68-.52-.58-.77-.94-.9-.92Z"/>
    <path class="cls-3" d="M178.67,218.19c-5.54-2.11-6.69-6.34-6.69-13.86,0-2.15.13-4.59.26-7.3.26-6.23.39-11.09.39-15.12,0-5.91-.26-9.77-.9-12.74-.13-.65-.13-1.19-.13-1.72,0-3.9,2.83-6.42,5.92-6.96,7.85-1.39,8.24,6.33,8.24,15.34,0,3.76-.26,8.51-.77,15.32-.26,4.21-.64,7.64-.64,10.33,0,8.33,5.28,8.2,9.14,7.52,1.93-.34,2.19-1.46,3.73-2.27.64-.38,1.42-.65,2.06-.77,3.35-.59,6.44,1.81,6.44,5.31,0,2.29-1.42,5.09-4.76,7.83-4.38,3.6-14.68,9.99-20.6,14.41-9.78,7.38-14.16,13.93-14.16,18.91,0,5.38,5.67,10.15,18.92,7.8,2.06-.37,12.23-2.3,17.9-7.48,2.06-1.84,4.25-2.9,6.05-3.22,4.25-.75,7.34,1.92,7.34,5.55,0,8.33-15.06,15.71-28.32,18.06-23.3,4.13-33.73-5.57-33.73-17.13,0-9.68,7.08-21.95,22.66-33.85.26-.18,3.35-2.47,4.38-3.33-.77,0-1.8-.22-2.7-.6Z"/>
    <path class="cls-3" d="M256.56,262.96c-3.99.71-6.57-2.06-6.57-5.42,0-2.42,1.42-5.22,4.76-7.3,26.39-15.97,33.73-37.29,33.73-56.38,0-6.72-.9-13.01-2.19-18.83-1.29-6.09-4.12-8.14-7.21-7.59-3.22.57-6.69,3.88-9.53,8.14-5.54,8.51-6.82,17.87-7.08,29.88-.26,7.3-3.6,11.12-6.82,11.69-6.44,1.14-6.44-7.73-6.44-9.61,0-9.81,3.35-23.17,5.15-29.81,1.93-7.2,5.15-17.58,6.69-26.05.64-3.47,2.96-5.23,5.41-5.66,3.48-.62,7.34,1.52,7.34,5.69,0,.4-.13.83-.13,1.23-.64,4.68-2.32,6.59-3.99,10.11-.9,1.64-1.03,2.2-.9,2.18.26-.05,1.03-.99,1.93-2.09,3.86-4.58,7.85-7.17,11.59-7.83,15.45-2.74,19.31,23.45,19.31,37.43,0,22.44-9.4,48.57-41.07,68.57-1.42.92-2.7,1.42-3.99,1.65Z"/>
    <path class="cls-3" d="M404.35,229.62c-.39.07-.77.14-1.29.23-27.94,2.27-45.57-14.76-45.57-35.45,0-5.24,1.16-14.58,9.27-26.24.39-.61.64-1.05.64-1.32,0-.13-.13-.25-.26-.22-.26.05-.77.41-1.29.77-20.21,14.47-22.66,15.71-25.49,16.21-4.76.85-7.85-2.1-7.85-5.86,0-2.69,1.8-5.96,5.92-8.04,2.7-1.42,10.04-5.01,13.9-7.17,6.05-3.36,16.74-8.75,29.48-16.25,9.53-5.59,22.14-12.26,34.12-14.39,6.44-1.14,8.75,1.54,8.75,5.03,0,6.85-5.41,9.29-10.3,10.16-.9.16-1.93.34-2.96.39-1.03.05-2.06.23-3.09.41-19.96,3.54-39.52,24.75-39.52,42.76,0,16.13,14.68,27.23,34.89,23.64,6.44-1.14,9.53,2.21,9.53,6.24,0,3.76-2.96,8.05-8.88,9.1ZM415.43,180.48c-1.8-1.83-8.24-5.66-10.94-6.39-2.32-.53-3.22-1.98-3.22-3.6,0-2.69,2.45-5.67,5.66-6.25,1.67-.3,17.38,3.1,17.38,10.09,0,3.36-2.83,6.82-5.54,7.3-1.16.21-2.32-.13-3.35-1.15ZM430.23,166.7c-1.8-1.83-8.5-5.35-11.2-5.94-2.32-.53-3.35-1.96-3.35-3.57,0-2.69,2.45-5.81,5.66-6.38,2.06-.37,17.51,2.67,17.51,9.66,0,3.36-2.58,6.77-5.41,7.27-1.03.18-2.19-.15-3.22-1.04Z"/>
    <path class="cls-3" d="M471.94,223c-3.22-4.4-10.3-9.33-15.84-11.3-2.45-.91-3.48-2.74-3.48-4.76,0-3.09,2.32-6.32,6.05-6.99,4.51-.8,25.1,7.37,25.1,16.51,0,4.3-3.48,8.01-6.95,8.62-1.8.32-3.6-.3-4.89-2.09Z"/>
  </g>
  <g>
    <path class="cls-3" d="M544.55,173.65c-4.51.8-10.04-.37-15.32-4.27-13-9.38-16.74-27-18.8-37.12-1.03-4.92-2.45-12.87-2.45-13.94,0-3.9,3.22-7.02,6.44-7.59,2.7-.48,5.54.9,6.44,5.17.77,4.16,1.03,8.69,1.8,12.85,5.28,30.38,17.38,29.44,18.15,29.3,1.29-.23,2.45-1.51,3.6-4.94,1.16-3.43,2.06-7.49,3.6-12.06,1.03-2.87,2.83-4.27,4.76-4.61,3.35-.59,6.82,1.88,6.82,5.51,0,.4-.13.69-.13,1.1-.77,4.57-3.35,13.76-3.73,18-.64,6.83-5.15,11.53-11.2,12.6ZM593.98,134.37c-1.16-8.8-8.24-18.56-16.87-24.15-1.54-.94-2.19-2.43-2.19-3.91,0-2.82,2.45-5.94,5.79-6.54,1.67-.3,3.6.03,5.41,1.33,5.41,3.88,21.37,15.83,21.37,29.4,0,4.97-3.6,8.3-7.08,8.92-2.96.53-5.92-.96-6.44-5.04Z"/>
    <path class="cls-3" d="M630.03,139.26c-3.6.64-5.92-2.04-5.92-5.13,0-2.28,1.16-4.77,4.12-6.51,4.38-2.52,10.04-6.22,15.83-9.93,8.63-5.56,19.57-12.48,29.74-14.28,14.81-2.63,23.3,7.02,23.3,17.64,0,22.84-38.24,41.59-46.99,43.14-3.99.71-6.31-1.97-6.31-5.06,0-2.55,1.67-5.4,5.28-6.58,21.5-6.91,36.05-20.1,36.05-29.78,0-3.23-2.96-10.23-12.1-8.6-6.31,1.12-14.55,6.21-24.98,13.44-13.65,9.95-15.84,11.28-18.02,11.66Z"/>
    <path class="cls-3" d="M755.04,147.86c-25.75,4.57-26.78-10.84-26.78-24.14,0-15.32,1.54-35.08,1.54-50.94,0-5.78-.26-10.97-.77-15.18,0-.4-.13-.92-.13-1.32,0-4.43,3.35-7.31,6.69-7.91,3.35-.59,6.82,1.07,7.21,5.17.26,2.91.39,6.11.39,9.61,0,16.53-2.7,38.11-2.7,56.11,0,11.02.51,17.65,13.26,15.39,14.16-2.51,28.32-10.94,30.77-12.45,1.54-.95,2.83-1.44,3.99-1.65,3.99-.71,6.31,1.97,6.31,5.33s-1.93,7.06-6.31,9.59c-2.83,1.58-16.74,9.42-33.47,12.39Z"/>
    <path class="cls-3" d="M841.81,102.5c-.39-18.61-.9-26.72-2.19-39.79v-.81c0-3.49,2.7-5.85,5.54-6.36,2.83-.5,5.79.85,5.92,4.59.26,4.39.39,8.4.51,12.68,2.58-.73,5.02-1.83,7.47-3.88,1.16-1.01,2.45-1.64,3.6-1.85,3.35-.59,6.05,1.88,6.05,4.97,0,5.38-7.21,8.54-14.16,10.98l-2.7.88c.13,4.68.13,9.79.13,15.83,0,2.42,0,5.78-.13,9.03,11.07,3.82,12.49,7.46,12.49,10.15,0,3.63-2.58,7.31-5.67,7.86-1.54.27-3.09-.26-4.63-1.73-1.42-1.36-2.96-2.7-4.63-3.88-2.83,5.74-8.62,11.34-15.32,12.53-9.53,1.69-17.38-6.19-17.38-12.91,0-5.78,5.15-11.8,15.19-13.58,3.22-.57,6.57-.63,9.91-.42v-4.3ZM832.28,116.55c-1.42.25-5.15,1.18-5.15,3.33,0,2.28,3.6,4.2,6.31,3.72,2.96-.53,5.66-3.02,6.95-6.61-2.83-.71-5.67-.88-8.11-.44Z"/>
    <path class="cls-3" d="M906.56,115.47c-2.45-7.76-3.35-16.34-3.35-25.07,0-23.65,6.57-47.93,7.21-57.32.39-4.64,3.22-7.02,6.18-7.55,3.22-.57,6.44,1.14,6.44,4.77,0,.27,0,.67-.13,1.1-1.8,10.13-8.37,36.16-8.37,49.46,0,4.97.9,5.35,1.29,5.28.26-.05.64-.38.9-1.1,3.99-8.64,4.89-10.41,7.6-10.89,2.7-.48,5.28,1.75,5.28,4.71,0,.81-.13,1.64-.64,2.53-6.18,12.25-9.66,22.95-9.66,26.98,0,1.21.13,2.4.13,3.6,0,6.58-5.02,7.88-6.44,8.13-2.58.46-5.28-.81-6.44-4.64ZM978.14,101.96c-22.27,3.95-39.27-6.88-39.27-13.46,0-3.49,3.09-6.86,6.69-7.5,1.93-.34,3.99.1,5.79,1.93,5.41,5.36,14.55,6.42,24.98,4.57,3.61-.64,7.21-1.55,10.94-2.75.51-.23,1.03-.32,1.54-.41,4.38-.78,6.44,1.95,6.44,5.31,0,6.99-5.67,10.28-17.12,12.31ZM963.59,45.55c-5.67,1.01-11.72,1.54-17.38,1.07-3.86-.26-5.41-2.53-5.41-5.09,0-3.23,2.45-6.75,5.92-7.37.39-.07.77-.14,1.29-.09,4.25.19,8.5-.16,12.49-.87,5.54-.98,10.81-2.59,15.84-4.15.39-.07.77-.27,1.16-.34,3.99-.71,6.18,1.99,6.18,5.22,0,5.38-3.6,8.7-20.08,11.63Z"/>
    <path class="cls-3" d="M1032.47,102.8c-3.22-4.4-10.3-9.33-15.84-11.3-2.45-.91-3.48-2.74-3.48-4.76,0-3.09,2.32-6.32,6.05-6.99,4.51-.8,25.1,7.37,25.1,16.51,0,4.3-3.48,8.01-6.95,8.62-1.8.32-3.6-.3-4.89-2.09Z"/>
  </g>
  <g>
    <path class="cls-3" d="M47.56,502.76c-3.29.58-6.29-1.12-6.29-4.56,0-1.2.43-2.62,1.29-4.26,4.01-7.43,7.44-18.34,8.44-27.18.43-3.66,3-5.76,5.72-6.24,3.29-.58,6.58,1.22,6.58,5.4,0,3.58-4.15,22.84-9.44,32.14-1.57,2.82-4,4.29-6.29,4.7ZM66.73,502.49l.43-52.04c-1.14.35-14.88,4.88-18.31,5.49s-5.29-2.05-5.29-5.03c0-2.69,1.57-5.66,4.72-6.36,2-.5,4.43-1.09,7.15-1.72,2.72-3.62,5.72-8.03,8.73-12.75-5.01-4.19-13.16-9.01-16.74-10.77-2-.99-2.72-2.65-2.72-4.3,0-2.99,2.43-6.4,5.87-7.01,1-.18,1.57-.13,4.15.76,4.15-7.45,9.15-19.09,11.16-27.51.71-3.11,3.15-4.74,5.72-5.2,3.72-.66,7.58,1.04,7.58,4.78,0,5.08-12.02,28.26-14.88,33.1,2.29,1.54,4.58,3.07,6.58,4.66,4.58-8.28,8.73-16.78,11.16-23.33,1-2.87,3.29-4.32,5.58-4.72,3.58-.63,7.3,1.39,7.3,5.28,0,4.78-14.88,29.97-23.46,42.54,5.15-1.51,10.16-2.85,13.59-3.9-2.72-3.55-3.29-4.34-3.29-5.84,0-2.69,2.72-5.26,5.58-5.77,6.87-1.22,14.45,13.71,14.45,18.19s-3.29,7.75-6.44,8.31c-2.86.51-4.58-1.73-6.01-6.55-2.15.83-5.58,2.18-9.44,3.47l.29,53.85c0,4.63-3.43,7.63-6.87,8.24-3.29.58-6.58-1.07-6.58-5.7v-.15ZM95.33,481.74c-2.43.43-4.58-.53-5.15-3.57-1-5.79-4.15-12.55-6.58-16.45-.57-.79-.72-1.67-.72-2.56,0-2.84,2.72-5.41,5.72-5.94,1.57-.28,3.15.04,4.44,1.15,4,3.92,9.44,15.5,9.44,19.38,0,4.18-3.72,7.38-7.15,7.99ZM96.62,497.48c-4.43.79-6.58-2.12-6.58-5.4s2.15-6.8,6.58-7.59l26.46-4.55v-85.56l-18.6,3.45c-4.43.79-6.58-2.12-6.58-5.4s2.15-6.8,6.58-7.59l54.64-9.69c4.58-.81,6.87,2.07,6.87,5.35s-2.29,6.83-6.87,7.64l-22.17,3.78v85.56l28.04-5.12c4.58-.81,6.87,2.07,6.87,5.35s-2.29,6.83-6.87,7.64l-68.38,12.13Z"/>
    <path class="cls-3" d="M257.54,389.05c-1.72-1.34-2.86-1.88-4.15-1.65-1.14.2-2.29,1.15-3.72,3.05-18.02,22.76-44.77,47.21-51.78,48.46-4.29.76-6.87-2.36-6.87-6.1,0-2.84,1.43-5.78,4.72-7.86,16.16-10.03,33.76-27.49,44.34-41.17,3.72-4.84,8.01-7.84,12.59-8.65,4.43-.79,9.01.49,13.88,3.96,13.59,10.13,28.32,17.67,44.92,22.05,3.29.91,4.72,3.34,4.72,6.03,0,3.88-2.72,8.1-7.15,8.88-8.3,1.47-34.47-13.59-51.5-27ZM279.43,364.26v5.53c0,4.03-3.43,6.73-6.72,7.31-3.29.58-6.58-.77-6.58-4.51v-5.97l-26.46,4.69v5.53c0,4.03-3.43,6.73-6.72,7.31s-6.44-.8-6.44-4.53v-5.97l-27.61,5.05c-4.15.74-6.29-2.17-6.29-5.45s2.15-6.8,6.29-7.54l27.61-4.75v-7.91c0-3.88,3.29-6.41,6.72-7.02,3.15-.56,6.44.8,6.44,4.68v7.91l26.46-4.69v-7.91c0-3.88,3.43-6.43,6.72-7.02,3.29-.58,6.58.77,6.58,4.66v7.91l28.61-5.23c4.15-.74,6.29,2.17,6.29,5.3s-2.15,6.95-6.29,7.69l-28.61,4.93ZM208.34,479.01c-4.15.74-7.15-2.61-7.15-6.35,0-2.54,1.43-5.33,4.58-7.23,8.15-4.73,15.16-11.5,20.46-20.05,1.29-2.17,3-3.22,4.58-3.5,3.58-.63,6.87,2.37,6.87,6.25,0,7.91-23.75,29.9-29.32,30.89ZM260.26,429.18l.14,39.1c0,4.63-3.29,7.45-6.58,8.04-3.43.61-6.72-1.05-6.72-5.68l.14-39.15-24.03,4.41-.14.03c-4.01.71-6.01-1.92-6.01-5.06s2.15-6.65,6.15-7.36l24.03-4.11v-11.2c0-4.78,3.29-7.75,6.44-8.31,3.29-.58,6.58,1.22,6.58,6v11.2l24.6-4.51c3.86-.69,5.87,2.1,5.87,5.08,0,3.14-2,6.63-5.87,7.31l-24.6,4.22ZM291.88,459.86c-4.72-5.58-12.3-9.76-19.88-12.15-2.58-.89-3.72-2.77-3.72-5.02,0-3.58,2.72-7.65,6.44-8.31,3.58-.63,19.02,4.99,27.18,12.5,1.72,1.64,2.43,3.6,2.43,5.54,0,4.33-3.58,8.85-7.3,9.51-1.72.3-3.58-.26-5.15-2.07Z"/>
    <path class="cls-3" d="M390.93,403.79c0,2.28,0,4.7-.26,7.44-.39,5.44-3.86,8.88-6.95,9.43-2.83.5-5.28-1.21-5.28-5.38v-1.21c.39-3.29.51-6.41.51-9.1-2.7,1.96-14.68,10.67-14.68,19.13,0,2.29,1.03,10.03,14.16,7.7,5.92-1.05,12.49-3.83,16.22-5.7,1.16-.61,2.32-.95,3.22-1.11,4.25-.75,6.69,1.9,6.69,5.13,0,2.82-1.03,9.86-23.04,13.76-21.11,3.75-28.84-6.44-28.84-16.25,0-16.39,18.28-29.85,24.98-34.67-1.54-4.97-4.12-7.2-7.6-6.58-2.06.37-4.25,1.56-6.69,3.61-5.41,7.27-8.63,9.73-11.46,10.23-3.09.55-5.54-1.17-5.54-4.12,0-1.61.77-3.77,2.96-6.03,6.95-7.68,10.43-11.66,16.48-23.35-2.32.81-4.38,1.31-6.31,1.66-13,2.31-13.13-5.2-13.13-6.27,0-3.09,2.19-6.3,5.28-6.85,1.42-.25,2.96.01,4.63.92,1.16.6,2.83.57,4.76.23,1.03-.18,4.38-.91,10.17-3.28,1.16-3.7,1.67-6.34,2.32-11.03.52-3.45,2.83-5.21,5.41-5.66,3.35-.59,6.95,1.19,6.95,4.68,0,1.61-.52,3.85-.77,5.11,3.86-2.7,4.38-2.93,5.28-3.09,3.09-.55,5.54,1.71,5.54,4.93,0,4.43-3.35,7.72-16.74,13.45-1.93,4.51-4.51,9.53-7.34,14.74,7.08-1.26,12.87,1.88,16.22,9.75,16.22-10.13,27.55-15.77,29.74-16.16,4.63-.82,7.21,2.35,7.21,5.71,0,2.15-1.16,4.5-3.48,5.86-3.99,2.46-8.24,3.75-14.93,7.08-5.41,2.71-10.94,5.84-15.96,8.88.26,1.97.26,4.12.26,6.41Z"/>
    <path class="cls-3" d="M565.73,380.36l-41.77,6.52c14.45,9.08,29.18,12.89,45.35,16.29,3.15.64,4.43,2.65,4.43,5.04,0,3.88-3.72,8.72-8.44,9.56-5.15.91-29.32-7.79-47.63-20.67l.29,27.72v.15c0,3.73-3.43,6.28-6.72,6.87-3.43.61-6.72-.75-6.72-4.48v-.15l.29-27.53c-16.59,18.32-43.49,37.58-48.49,38.47-4.15.74-7.15-2.02-7.15-5.45,0-2.24,1.43-4.88,4.72-6.81,17.31-10.09,30.47-19.89,44.06-34.4l-40.48,8.08-.14.03c-4.01.71-6.01-2.07-6.01-5.21s2-6.63,6.15-7.36l47.21-8.38-.14-4.16c-.14-3.71,2.43-7,6.72-7.76,3.43-.61,6.72.9,6.72,5.08v4.48l47.78-8.48c4.15-.74,6.15,2.04,6.15,5.18s-2,6.63-6.01,7.34l-.14.03ZM456.45,376.75c-4.15.74-6.58-2.42-6.58-6,0-2.54,1.43-5.33,4.43-6.91,10.01-5.06,12.73-6.59,20.74-13.24,1-.78,2-1.25,2.86-1.4,3.15-.56,5.44,2.17,5.44,5.46,0,1.94-.86,4.18-2.72,5.86-10.58,9.49-21.6,15.78-24.17,16.24ZM471.47,339.15c-4.86-3.62-11.16-6.83-14.45-8.04-2.15-.81-3-2.3-3-4.1,0-3.43,3.15-7.58,6.87-8.24,6.01-1.07,19.03,7.53,19.03,7.53,1.72,1.34,2.43,3.3,2.43,5.24,0,4.03-2.86,8.12-6.44,8.76-1.43.25-3-.06-4.43-1.15ZM535.55,320.31c.14,5.35.43,12.47.43,19.04,0,3.88-.14,7.49-.29,10.35-.29,6.02-3.72,11.86-11.44,13.98-3.15.86-9.73,2.32-15.59,3.36-10.3,1.83-21.03,3.58-21.46-7.99-.14-3.71-.14-9.38-.14-14.91s0-11.2.14-14.81c.14-5.85,3.86-11.44,11.44-13.23,1.15-.2,2.72-.63,4.58-.96.72-2.96,1.43-6.82,1.86-9.74.57-3.98,3.72-6.33,6.72-6.87,3.58-.63,7.3,1.09,7.3,4.98,0,1.79-1.29,6.35-2.29,9.07,7.01-1.24,18.45-3.27,18.74,7.73ZM523.96,332.07c0-2.69-.14-5.2-.14-7.14-.14-3.41-.29-3.83-12.16-1.73-3.58.63-7.15,1.27-8.58,1.67-4.43,1.09-4.43,3.18-4.43,11.69l25.32-4.49ZM498.64,346.87c0,3.29,0,5.97.14,7.74.29,3.98,3.58,3.4,12.87,1.75,3.58-.63,7.01-1.24,8.44-1.65,3.86-.98,3.86-3.67,3.86-12.33l-25.32,4.49ZM545.13,329.06c-3.58.63-6.29-2.32-6.29-5.6,0-1.79.86-3.74,3-5.16,4.72-3.08,10.73-8.62,15.73-14.29,1.57-1.77,3.15-2.8,4.72-3.08,3.72-.66,6.72,2.39,6.72,6.27,0,1.94-.86,4.03-2.72,6.01,0,0-15.88,14.91-21.17,15.85ZM559.58,355.32c-5.15-3.72-10.44-6.36-15.59-7.69-2.86-.69-4.01-2.42-4.01-4.52,0-3.14,2.86-6.63,6.72-7.31,6.58-1.17,18.88,5.01,21.03,6.27,2.29,1.54,3.29,3.75,3.29,5.99,0,3.88-2.86,7.82-6.58,8.48-1.43.25-3.15-.04-4.86-1.23Z"/>
    <path class="cls-3" d="M633.21,396.15c-25.75,4.57-26.78-10.84-26.78-24.14,0-15.32,1.55-35.08,1.55-50.94,0-5.78-.26-10.97-.77-15.18,0-.4-.13-.92-.13-1.32,0-4.43,3.35-7.31,6.69-7.91,3.35-.59,6.82,1.07,7.21,5.17.26,2.91.39,6.11.39,9.61,0,16.53-2.7,38.11-2.7,56.11,0,11.02.52,17.65,13.26,15.39,14.16-2.51,28.32-10.94,30.77-12.45,1.54-.95,2.83-1.44,3.99-1.65,3.99-.71,6.31,1.97,6.31,5.33s-1.93,7.06-6.31,9.59c-2.83,1.58-16.74,9.42-33.47,12.39Z"/>
    <path class="cls-3" d="M736.07,283.42c.39-.07.64-.25,1.03-.32,2.96-.53,5.41,1.86,5.41,4.95,0,4.03-2.57,5.83-7.85,9.59-.9,7.01-1.42,16.11-1.8,23.03,1.29,1.79,2.06,4.07,2.06,6.76,0,1.88-.39,3.97-1.16,6.25-1.54,4.44-5.02,10.84-7.21,16.33-1.03,2.6-1.55,4.98-1.55,7.13,0,8.2,7.98,10.54,15.71,9.17,9.66-1.71,23.95-11.64,23.95-21.18,0-2.15-.39-3.56-3.73-15.33-.26-.9-.39-1.81-.39-2.62,0-4.03,2.96-6.71,6.05-7.26,2.7-.48,5.54.63,6.57,3.81,5.15,15.21,5.15,19.38,5.15,20.05,0,15.99-22.27,32.04-37.72,34.78-11.33,2.01-27.42-1.72-27.42-17.17,0-3.09.64-6.57,1.8-10.27-8.75.34-12.62-9.45-12.62-16.44,0-9.41,6.57-17.43,14.81-18.89,1.42-.25,3.09-.28,4.63-.15.39-3.97.64-8.18,1.03-11.74-2.83,1.17-5.28,1.74-7.21,2.08-7.72,1.37-11.33-.54-11.33-4.71,0-2.55,1.55-6.46,5.54-7.16.64-.11,1.42.02,2.32.13,1.29.31,2.83.17,4.51-.13,2.19-.39,4.64-1.23,6.95-2.31-.13-3.47-.77-5.91-.9-8.04v-.94c0-4.57,3.09-7.27,6.31-7.84,3.35-.59,6.95,1.19,7.08,5.73v2.69ZM716.76,327.03c-2.83.5-4.38,3.06-4.38,5.88,0,4.43,2.19,6.47,4.25,6.1,3.73-.66,5.79-8.29,5.79-9.09,0-1.21-.77-1.34-1.16-2.21-1.03-.62-2.45-1.04-4.51-.68ZM785.63,295.46c-3.86-2.41-6.69-3.52-8.75-3.15-2.19.39-3.73,2.14-5.28,5.5-1.29,2.65-3.22,3.93-5.15,4.27-3.35.59-6.69-1.63-6.69-5.53,0-4.84,6.18-14.27,17.12-16.21,9.53-1.69,18.92,2.69,18.92,8.2,0,3.49-2.83,7.09-6.31,7.7-1.16.21-2.58-.08-3.86-.79Z"/>
  </g>
  <g>
    <path class="cls-1" d="M140.28,877.28c-4.15-16.53-4.62-71.88,1.66-105.82l-24.79,6.22c-7.83,1.96-16.42-2.82-18.5-11.08-2.29-9.13,2.6-17.29,10.86-19.37l40.01-10.04c9-34.16,22.9-67.23,41.25-104.65-3.26,1.74-6.74,2.62-9.35,3.27-17.83,4.47-33.39,3.29-47.31,1.23-9.57-1.3-18.49-1.83-28.06.56-10,2.51-22.83,8.5-20.32,25.9,1.31,8.92-3.14,16.97-12.27,19.26-8.26,2.07-16.53-1.4-19.15-11.84-9.05-36.1,19.53-58.53,46.06-65.18,13.48-3.38,27.95-2.85,41.33-1.12,14.36,1.95,28.39,2.59,42.74-1.01,11.74-2.95,23.26-12.31,31.74-22.75,2.82-3.48,5.54-5.55,9.46-6.53,9.57-2.4,17.73,2.49,20.13,12.06,1.09,4.35-.1,8.81-1.62,11.96-25.41,49.83-45.28,90.41-58.09,129.68l19.14-4.8c9.13-2.29,17.29,2.6,19.58,11.73,2.07,8.26-3.25,16.53-11.95,18.72l-36.1,9.05c-7.37,33.28-9.41,67.54-4.92,107.56,1.2,10.33-3.79,16.21-12.49,18.39-8.26,2.07-16.31-.53-19.04-11.4Z"/>
    <path class="cls-1" d="M274.37,812.3c-.7-2.78-.61-6.87-.53-9.48l2.37-195.5c.17-8.18,3.73-13.14,11.39-15.06l47.32-11.87c49.06-12.3,94.93,6.89,108.46,60.82,20.95,83.51-28.95,150.02-107.58,169.74l-44.54,11.17c-9.74,2.44-14.97-2.16-16.89-9.82ZM329.33,785.2c64.02-16.06,102.27-70.03,85.51-136.84-9.16-36.54-39.02-50.87-73.47-42.23l-37.58,9.43-2.3,176.62,27.84-6.98Z"/>
    <path class="cls-1" d="M472.01,734.62c-9.16-36.54,13.6-77.01,52.22-86.7,11.83-2.97,23.92-3.41,35.32-.72.61-4.96,4.34-9.23,10.26-10.71,7.66-1.92,14.62,2.25,16.54,9.91.35,1.39.44,4.7.44,6.18l-1,56.47c-.08,5.57.09,7.74.7,10.18.61,2.44,2.53,4.17,5.31,3.48,6.96-1.75,16.95-17.94,28.51-41.18,2-3.83,4.52-7.05,9.39-8.27,7.66-1.92,14.62,2.25,16.54,9.91.87,3.48.53,6.52-.95,9.48-18.68,39.08-34.76,53.1-50.77,57.11-14.96,3.75-24.19.89-29.59-7.37-9.39,12.71-23.3,20.64-38.96,24.56-26.1,6.54-47.33-5.88-53.97-32.32ZM558.98,687.66l.25-16.7c-8.53-1.56-18.88-1.55-28.28.8-23.31,5.85-39.04,33.09-33.89,53.62,3.67,14.62,14.11,19.39,26.98,16.16,21.57-5.41,34.35-25.26,34.94-53.88Z"/>
    <path class="cls-1" d="M661.52,823.56c-7.24-28.88,13.53-53.69,37.26-79.99l8.34-9.49.33-26.71c-9.04,11.14-21.04,19.33-36.7,23.26-23.31,5.85-39.5-2.67-45-24.59-1.22-4.87-1.93-16.53-1.93-23.93l-.73-48.63c-.18-6.61,3.82-11.31,10.43-12.97,7.66-1.92,14.62,2.25,16.28,8.86.52,2.09.44,10.62.36,11.75l-.93,40.55c-.08,5.57.27,9.92,1.23,13.75,1.92,7.66,7.58,12.52,19.06,9.64,19.83-4.97,38.43-34.05,38.93-58.58l.58-34.54c.17-6.7,3.82-11.31,10.43-12.97,7.66-1.92,14.62,2.25,16.28,8.86.52,2.09.61,5.39.53,6.53l-2.45,89.01c14.25-18.37,22.68-33.43,36.15-59.37,2-3.83,4.52-7.05,9.39-8.27,7.66-1.92,14.62,2.25,16.54,9.91.87,3.48.53,6.52-.95,9.48-16.85,34.55-27.11,48.22-62.23,88.1l-1.26,53.94c-.76,27.93-11.54,43.95-32.07,49.1-16.01,4.01-33.15-3.89-37.86-22.68ZM706.22,796.82l.33-23.75c-13.39,15.93-23.47,30.3-20.33,42.82,1.22,4.87,5.31,6.43,9.14,5.47,7.31-1.83,10.61-10.8,10.86-24.54Z"/>
    <path class="cls-1" d="M805.79,671.25c-.79-3.13-.87-4.96-.88-6.44.08-5.57,3.65-10.53,9.56-12.01,5.92-1.48,12.01.69,14.45,5.99,1.57,3.31,3.83,4.96,8.01,3.91,7.31-1.83,11.13-8.71,8.69-18.45-2.71-10.79-14.63-17.04-27.25-23.12l-8.88-4.43c-2.25,10.18-6.16,22.63-12.94,36.9-1.91,4.18-4.87,7.14-9.74,8.36-7.66,1.92-14.62-2.25-16.54-9.91-1.05-4.18-.27-6.96,1.73-10.79,13.9-27.16,13.53-50.73,13.01-58.74-.61-6.87,3.82-11.31,10.43-12.97,7.66-1.92,14.53,1.9,16.19,8.51.96,3.83.61,5.39,1.66,9.57,1.83,7.31,10.88,12.43,21.85,17.82,14.27,6.78,31.42,16.16,35.79,33.56l.61,2.44c5.3-6.88,10.6-15.23,16.51-27.07,2-3.83,4.52-7.05,9.39-8.27,7.66-1.92,14.62,2.25,16.54,9.91.87,3.48.53,6.52-.95,9.48-22.85,47.52-53.9,57.9-68.86,61.65-21.92,5.5-35.33-3.71-38.38-15.89Z"/>
  </g>
</svg>