<?xml version="1.0" encoding="UTF-8"?>
<svg xmlns="http://www.w3.org/2000/svg" viewBox="0 0 1200 200">
  <defs>
    <style>
      .cls-1 {
        fill: #f38600;
        stroke: #fff;
        stroke-width: 2px;
      }

      .cls-1, .cls-2 {
        stroke-miterlimit: 10;
      }

      .cls-2 {
        fill: #fff;
        stroke: #000333;
        stroke-width: .75px;
      }
    </style>
  </defs>
  <g id="_レイヤー_1のコピー" data-name="レイヤー 1のコピー">
    <g>
      <path class="cls-2" d="M47.48,180.05L70.08,22.62c.96-6.65,6.27-10.52,12.15-10.5s10.08,3.91,9.13,10.56l-8.63,60.14,90.72.24,8.63-60.14c.96-6.65,6.27-10.52,12.15-10.5s10.08,3.91,9.13,10.56l-22.6,157.43c-.95,6.65-6.27,10.52-12.15,10.5s-10.08-3.91-9.13-10.56l11.02-76.77-90.72-.24-11.02,76.77c-.95,6.65-6.27,10.52-12.15,10.5s-10.08-3.91-9.13-10.56Z"/>
      <path class="cls-2" d="M217.54,146.39c3.7-25.77,25.76-44.85,52.64-44.78,19.32.05,33.29,10.07,38.1,25.33,5.12-2.48,10.04-5.52,15.31-9.11,1.88-1.38,4.24-2.21,7.04-2.2,6.16.02,10,4.46,9.13,10.56-.48,3.33-2.35,6.65-6.03,8.86-9.52,5.8-17.11,9.94-23.91,12.42-4.22,25.5-25.89,43.74-52.49,43.67-26.88-.07-43.49-18.97-39.79-44.74ZM288.42,152.12h-4.2c-23.8-.07-36.65-12.03-34.82-24.78l.16-1.11c-6.24,4.42-10.63,11.62-11.86,20.21-2.19,15.24,6.94,25.8,22.34,25.84,13.44.04,24.39-7.98,28.38-20.17ZM288.33,133.26c-2.28-5.55-7.85-11.67-15.13-11.68-2.52,0-4.44,1.65-4.76,3.87-.84,5.82,9.53,7.79,18.49,7.81h1.4Z"/>
      <path class="cls-2" d="M381.06,140.16c.8-5.54,1.07-13.3-6.21-13.32-4.2-.01-9.48,3.58-12.6,5.79l-3.4,2.21c-1.88,1.38-4.2,1.93-6.72,1.92-6.16-.02-10-4.46-9.13-10.56.52-3.6,2.67-6.92,5.43-8.58l4.28-2.48c7.64-4.42,14.27-7.73,25.75-7.7,22.68.06,24.13,19.2,22.19,32.78-3.02,21.06,2.14,31.89,12.78,31.92,14.56.04,22.79-16.3,26.92-45.12.88-6.1,5.99-10.52,12.15-10.51,6.16.02,10,4.46,9.13,10.56-4.69,32.71,1.64,45.2,15.35,45.23,5.88.02,11.28-2.47,16.04-6.33-8.09-10-11.94-24.15-10.07-37.18,2.71-18.85,15.02-26.58,27.06-26.55,19.04.05,21.42,20.57,19.63,33.05-1.15,8.04-4.11,16.9-8.62,24.93h1.96c10.36.03,17.88-5.49,25.95-14.9,2.04-2.49,5.64-4.14,9.28-4.13,6.16.02,10,4.46,9.13,10.56-.4,2.77-1.8,4.71-3.19,6.65-10.91,13.56-25.18,21.28-43.94,21.24-4.48-.01-8.56-.85-12.56-2.25-9.07,8.57-20.27,14.37-33.43,14.33-12.04-.03-23.76-4.22-30.29-17.27-8.19,10.24-19.27,17.14-33.27,17.1-25.48-.07-34.57-16.73-29.6-51.37ZM509.5,135.23c.76-5.27,1.11-13.58-2.25-13.59-3.08,0-3.36,1.93-4.11,7.2-.88,6.1.09,13.03,2.9,18.86,1.72-4.15,2.87-8.31,3.47-12.47Z"/>
      <path class="cls-2" d="M635.16,167.17l1.15-8.04c-.96.83-2.2,1.66-3.4,2.21-1.8.83-3.8,1.1-4.92,1.1-6.16-.02-10-4.46-9.13-10.56.44-3.05,1.56-4.99,3.23-6.92l19.62-23.51,2.31-16.08-7.28-.02c-5.88-.02-9.2-4.18-8.37-10,.8-5.54,5.27-9.41,11.15-9.4l7.28.02,4.69-32.71c.88-6.1,6.19-9.97,11.23-9.95,5.6.01,9.52,3.91,8.65,10l-4.69,32.71,20.16.05c5.32.01,8.96,3.9,8.17,9.45-.84,5.82-5.63,9.97-11.23,9.95l-19.88-.05-8.47,59.04c-.76,5.27.21,8.32,4.69,8.33,7,.02,17.03-11.32,24.86-21.01l3.4-4.15c2.4-3.04,5.63-6.08,10.96-6.07,6.16.02,10,4.46,9.13,10.56-.56,3.88-3.27,7.2-4.59,8.58l-5.04,5.81c-5.04,5.81-8.35,9.41-14.35,14.1-12.95,10.23-21.55,11.59-29.67,11.57-15.4-.04-21.93-9.21-19.66-25Z"/>
      <path class="cls-2" d="M689.44,147.62c3.7-25.77,25.76-44.85,52.64-44.78s43.45,19.25,39.75,45.02c-.44,3.05-1.16,6.1-2.11,8.87,4-2.49,7.88-6.08,11.91-10.78,2.32-2.49,5.64-4.14,9.28-4.13,6.16.02,10,4.46,9.13,10.56-.28,1.94-.8,3.6-1.84,4.99-11.99,15.22-25.54,21.84-43.82,22.34-9.55,8.02-21.71,12.7-35.15,12.66-26.88-.07-43.49-18.97-39.79-44.74ZM737.9,172.98c-8.6-6.4-11.33-16.67-9.94-26.37,1.47-10.25,7.66-20.22,16.94-24.36-1.64-.28-3.56-.56-5.52-.57-15.4-.04-27.59,10.74-29.78,25.98-2.19,15.24,6.94,25.8,22.34,25.84,1.96,0,3.92.01,5.96-.54ZM761.68,147.81c.56-3.88.55-11.64-5.05-11.66-2.8,0-6.04,3.03-6.83,8.58-.99,6.93,2.49,11.93,8.01,14.44,1.88-3.32,3.27-7.2,3.87-11.36Z"/>
      <path class="cls-2" d="M862.73,160l6.72-46.84c.88-6.1,6.19-9.97,11.23-9.95,5.6.01,9.52,3.91,8.65,10l-6.64,46.29c-1.07,7.48,2.01,13.31,10.97,13.34,17.64.05,35.22-19.04,38.01-38.44l3.02-21.06c.88-6.1,6.19-9.97,11.23-9.95,5.6.01,9.52,3.91,8.65,10l-7.44,51.83c-.76,5.27.21,8.32,4.69,8.33,7,.02,17.03-11.32,24.86-21.01l3.4-4.15c2.4-3.04,5.63-6.08,10.96-6.07,6.16.02,10,4.46,9.13,10.56-.56,3.88-3.59,7.48-4.59,8.58l-5.04,5.81c-5.08,6.09-8.35,9.41-14.35,14.1-12.95,10.23-21.55,11.59-29.67,11.57-13.16-.03-19.81-6.43-20.09-18.08-8.35,9.41-21.63,17.97-36.19,17.93-26.88-.07-29.53-18.65-27.51-32.79Z"/>
      <path class="cls-2" d="M1003.22,170.62c1.55-10.81,13.94-21.04,26.82-21,1.68,0,3.88.29,5.52.57-6.12-6.12-15.77-11.13-19.17-12.8-5.12,6.36-10.19,12.45-14.19,16.88l-3.36,3.87c-2.04,2.49-5.79,5.25-10.28,5.24-6.16-.02-10-4.46-9.13-10.56.36-2.5,1.52-4.71,2.88-6.37l9.47-11.34,5.75-6.92c-7.61-5.56-10.85-14.17-9.62-22.76,1.71-11.92,11.82-23.81,27.5-23.77,13.72.04,22.45,11.43,20.58,24.45-.76,5.27-3.51,10.8-7.31,15.78,2.28,1.67,5.12,3.34,7.96,5.01,11.85,7.24,25.21,15.59,25.94,31.95,4.84-2.48,9.08-6.63,14.07-12.16,2.32-2.49,5.64-4.14,9.28-4.13,6.16.02,10,4.46,9.13,10.56-.28,1.94-.8,3.6-1.84,4.99-10.63,13.56-22.54,20.46-37.9,22.08-6.75,8.02-17.55,12.99-27.91,12.96-14.28-.04-26.72-5.06-24.22-22.52ZM1015.89,105.78c.36-2.5-.68-4.99-3.48-5-3.08,0-4.56,2.48-4.84,4.42-.48,3.33,2.24,5.83,4.57,7.22,1.92-1.66,3.44-4.43,3.75-6.64ZM1039.73,167.95c-1.44-1.67-3.72-3.34-7.64-3.35-3.08,0-8.04,1.37-8.56,4.97-.44,3.05,2.76,4.17,5.28,4.17,4.76.01,8.68-1.92,10.92-5.79Z"/>
      <path class="cls-2" d="M1075.35,154.73c2.98-20.79,19.92-50.96,44.56-50.9,15.68.04,23.37,10.87,21.42,24.45-2.67,18.57-20.74,31.28-45.41,35.37,1.89,6.38,7.77,10.28,17.29,10.31,12.88.03,23.59-8.26,33.82-20.98l3.4-4.15c2.4-3.04,5.63-6.08,10.96-6.07,6.16.02,10,4.46,9.13,10.56-.56,3.88-3.59,7.48-4.59,8.58l-5.04,5.81c-14.11,16.32-31.98,25.7-50.46,25.65-25.76-.07-38.45-15.07-35.07-38.63ZM1121.17,128.23c.4-2.77-1.52-4.99-4.04-5-8.96-.02-15.95,11.6-19.5,22.68,13.48-4.12,22.63-11.31,23.55-17.68Z"/>
    </g>
  </g>
  <g id="_レイヤー_1のコピー_2" data-name="レイヤー 1のコピー 2">
    <g>
      <path class="cls-1" d="M37.48,169.42L60.08,12c.96-6.65,6.27-10.52,12.15-10.5s10.08,3.91,9.13,10.56l-8.63,60.14,90.72.24,8.63-60.14c.96-6.65,6.27-10.52,12.15-10.5s10.08,3.91,9.13,10.56l-22.6,157.43c-.95,6.65-6.27,10.52-12.15,10.5s-10.08-3.91-9.13-10.56l11.02-76.77-90.72-.24-11.02,76.77c-.95,6.65-6.27,10.52-12.15,10.5s-10.08-3.91-9.13-10.56Z"/>
      <path class="cls-1" d="M207.54,135.76c3.7-25.77,25.76-44.85,52.64-44.78,19.32.05,33.29,10.07,38.1,25.33,5.12-2.48,10.04-5.52,15.31-9.11,1.88-1.38,4.24-2.21,7.04-2.2,6.16.02,10,4.46,9.13,10.56-.48,3.33-2.35,6.65-6.03,8.86-9.52,5.8-17.11,9.94-23.91,12.42-4.22,25.5-25.89,43.74-52.49,43.67-26.88-.07-43.49-18.97-39.79-44.74ZM278.42,141.49h-4.2c-23.8-.07-36.65-12.03-34.82-24.78l.16-1.11c-6.24,4.42-10.63,11.62-11.86,20.21-2.19,15.24,6.94,25.8,22.34,25.84,13.44.04,24.39-7.98,28.38-20.17ZM278.33,122.64c-2.28-5.55-7.85-11.67-15.13-11.68-2.52,0-4.44,1.65-4.76,3.87-.84,5.82,9.53,7.79,18.49,7.81h1.4Z"/>
      <path class="cls-1" d="M371.06,129.54c.8-5.54,1.07-13.3-6.21-13.32-4.2-.01-9.48,3.58-12.6,5.79l-3.4,2.21c-1.88,1.38-4.2,1.93-6.72,1.92-6.16-.02-10-4.46-9.13-10.56.52-3.6,2.67-6.92,5.43-8.58l4.28-2.48c7.64-4.42,14.27-7.73,25.75-7.7,22.68.06,24.13,19.2,22.19,32.78-3.02,21.06,2.14,31.89,12.78,31.92,14.56.04,22.79-16.3,26.92-45.12.88-6.1,5.99-10.52,12.15-10.51,6.16.02,10,4.46,9.13,10.56-4.69,32.71,1.64,45.2,15.35,45.23,5.88.02,11.28-2.47,16.04-6.33-8.09-10-11.94-24.15-10.07-37.18,2.71-18.85,15.02-26.58,27.06-26.55,19.04.05,21.42,20.57,19.63,33.05-1.15,8.04-4.11,16.9-8.62,24.93h1.96c10.36.03,17.88-5.49,25.95-14.9,2.04-2.49,5.64-4.14,9.28-4.13,6.16.02,10,4.46,9.13,10.56-.4,2.77-1.8,4.71-3.19,6.65-10.91,13.56-25.18,21.28-43.94,21.24-4.48-.01-8.56-.85-12.56-2.25-9.07,8.57-20.27,14.37-33.43,14.33-12.04-.03-23.76-4.22-30.29-17.27-8.19,10.24-19.27,17.14-33.27,17.1-25.48-.07-34.57-16.73-29.6-51.37ZM499.5,124.6c.76-5.27,1.11-13.58-2.25-13.59-3.08,0-3.36,1.93-4.11,7.2-.88,6.1.09,13.03,2.9,18.86,1.72-4.15,2.87-8.31,3.47-12.47Z"/>
      <path class="cls-1" d="M625.16,156.54l1.15-8.04c-.96.83-2.2,1.66-3.4,2.21-1.8.83-3.8,1.1-4.92,1.1-6.16-.02-10-4.46-9.13-10.56.44-3.05,1.56-4.99,3.23-6.92l19.62-23.51,2.31-16.08-7.28-.02c-5.88-.02-9.2-4.18-8.37-10,.8-5.54,5.27-9.41,11.15-9.4l7.28.02,4.69-32.71c.88-6.1,6.19-9.97,11.23-9.95,5.6.01,9.52,3.91,8.65,10l-4.69,32.71,20.16.05c5.32.01,8.96,3.9,8.17,9.45-.84,5.82-5.63,9.97-11.23,9.95l-19.88-.05-8.47,59.04c-.76,5.27.21,8.32,4.69,8.33,7,.02,17.03-11.32,24.86-21.01l3.4-4.15c2.4-3.04,5.63-6.08,10.96-6.07,6.16.02,10,4.46,9.13,10.56-.56,3.88-3.27,7.2-4.59,8.58l-5.04,5.81c-5.04,5.81-8.35,9.41-14.35,14.1-12.95,10.23-21.55,11.59-29.67,11.57-15.4-.04-21.93-9.21-19.66-25Z"/>
      <path class="cls-1" d="M679.44,137c3.7-25.77,25.76-44.85,52.64-44.78s43.45,19.25,39.75,45.02c-.44,3.05-1.16,6.1-2.11,8.87,4-2.49,7.88-6.08,11.91-10.78,2.32-2.49,5.64-4.14,9.28-4.13,6.16.02,10,4.46,9.13,10.56-.28,1.94-.8,3.6-1.84,4.99-11.99,15.22-25.54,21.84-43.82,22.34-9.55,8.02-21.71,12.7-35.15,12.66-26.88-.07-43.49-18.97-39.79-44.74ZM727.9,162.35c-8.6-6.4-11.33-16.67-9.94-26.37,1.47-10.25,7.66-20.22,16.94-24.36-1.64-.28-3.56-.56-5.52-.57-15.4-.04-27.59,10.74-29.78,25.98-2.19,15.24,6.94,25.8,22.34,25.84,1.96,0,3.92.01,5.96-.54ZM751.68,137.18c.56-3.88.55-11.64-5.05-11.66-2.8,0-6.04,3.03-6.83,8.58-.99,6.93,2.49,11.93,8.01,14.44,1.88-3.32,3.27-7.2,3.87-11.36Z"/>
      <path class="cls-1" d="M852.73,149.37l6.72-46.84c.88-6.1,6.19-9.97,11.23-9.95,5.6.01,9.52,3.91,8.65,10l-6.64,46.29c-1.07,7.48,2.01,13.31,10.97,13.34,17.64.05,35.22-19.04,38.01-38.44l3.02-21.06c.88-6.1,6.19-9.97,11.23-9.95,5.6.01,9.52,3.91,8.65,10l-7.44,51.83c-.76,5.27.21,8.32,4.69,8.33,7,.02,17.03-11.32,24.86-21.01l3.4-4.15c2.4-3.04,5.63-6.08,10.96-6.07,6.16.02,10,4.46,9.13,10.56-.56,3.88-3.59,7.48-4.59,8.58l-5.04,5.81c-5.08,6.09-8.35,9.41-14.35,14.1-12.95,10.23-21.55,11.59-29.67,11.57-13.16-.03-19.81-6.43-20.09-18.08-8.35,9.41-21.63,17.97-36.19,17.93-26.88-.07-29.53-18.65-27.51-32.79Z"/>
      <path class="cls-1" d="M993.22,160c1.55-10.81,13.94-21.04,26.82-21,1.68,0,3.88.29,5.52.57-6.12-6.12-15.77-11.13-19.17-12.8-5.12,6.36-10.19,12.45-14.19,16.88l-3.36,3.87c-2.04,2.49-5.79,5.25-10.28,5.24-6.16-.02-10-4.46-9.13-10.56.36-2.5,1.52-4.71,2.88-6.37l9.47-11.34,5.75-6.92c-7.61-5.56-10.85-14.17-9.62-22.76,1.71-11.92,11.82-23.81,27.5-23.77,13.72.04,22.45,11.43,20.58,24.45-.76,5.27-3.51,10.8-7.31,15.78,2.28,1.67,5.12,3.34,7.96,5.01,11.85,7.24,25.21,15.59,25.94,31.95,4.84-2.48,9.08-6.63,14.07-12.16,2.32-2.49,5.64-4.14,9.28-4.13,6.16.02,10,4.46,9.13,10.56-.28,1.94-.8,3.6-1.84,4.99-10.63,13.56-22.54,20.46-37.9,22.08-6.75,8.02-17.55,12.99-27.91,12.96-14.28-.04-26.72-5.06-24.22-22.52ZM1005.89,95.15c.36-2.5-.68-4.99-3.48-5-3.08,0-4.56,2.48-4.84,4.42-.48,3.33,2.24,5.83,4.57,7.22,1.92-1.66,3.44-4.43,3.75-6.64ZM1029.73,157.32c-1.44-1.67-3.72-3.34-7.64-3.35-3.08,0-8.04,1.37-8.56,4.97-.44,3.05,2.76,4.17,5.28,4.17,4.76.01,8.68-1.92,10.92-5.79Z"/>
      <path class="cls-1" d="M1065.35,144.1c2.98-20.79,19.92-50.96,44.56-50.9,15.68.04,23.37,10.87,21.42,24.45-2.67,18.57-20.74,31.28-45.41,35.37,1.89,6.38,7.77,10.28,17.29,10.31,12.88.03,23.59-8.26,33.82-20.98l3.4-4.15c2.4-3.04,5.63-6.08,10.96-6.07,6.16.02,10,4.46,9.13,10.56-.56,3.88-3.59,7.48-4.59,8.58l-5.04,5.81c-14.11,16.32-31.98,25.7-50.46,25.65-25.76-.07-38.45-15.07-35.07-38.63ZM1111.17,117.61c.4-2.77-1.52-4.99-4.04-5-8.96-.02-15.95,11.6-19.5,22.68,13.48-4.12,22.63-11.31,23.55-17.68Z"/>
    </g>
  </g>
</svg>