<?xml version="1.0" encoding="UTF-8"?>
<svg xmlns="http://www.w3.org/2000/svg" viewBox="0 0 1200 290">
  <defs>
    <style>
      .cls-1 {
        fill: #f38600;
        stroke: #fff;
        stroke-width: 2px;
      }

      .cls-1, .cls-2 {
        stroke-miterlimit: 10;
      }

      .cls-2 {
        fill: #fff;
        stroke: #000333;
        stroke-width: .75px;
      }
    </style>
  </defs>
  <g id="_レイヤー_1のコピー" data-name="レイヤー 1のコピー">
    <g>
      <path class="cls-2" d="M320.41,181.34c.24-1.66.88-4.16,1.52-6.65,5.82-19.12,12.53-38.51,20.4-56.23l-17.08-.04c-5.32-.01-9.28-3.63-8.41-9.73.88-6.1,5.87-9.69,11.19-9.68l23.52.06c9.63-18.27,20.29-35.99,33.56-54.26-2.56.27-5.12.54-7.36.54-10.92-.03-20-3.1-28.45-6.73-7.92-3.35-16.24-5.87-22.68-5.88s-11.28,2.47-13.03,8.84c-1.68,5.82-6.07,9.13-11.39,9.12-5.6-.01-9.56-3.63-8.65-10,2.27-15.8,16.06-27.96,33.42-27.92,9.52.03,18.32,3.1,27.08,6.45,8.48,3.35,17.32,6.15,26.56,6.17,8.12.02,19.24-3.28,25.31-8.53,2.88-2.49,5.88-3.87,9.24-3.86,5.6.01,9.56,3.63,8.65,10-.32,2.22-1.16,4.16-2.2,5.54-19.02,23.24-35.16,45.93-48.78,70.57l15.4.04c5.32.01,9.28,3.63,8.41,9.73-.88,6.1-5.87,9.69-11.19,9.67l-22.4-.06c-8.94,19.38-16.45,40.44-22.67,64.27-1.36,5.54-6.27,8.58-11.31,8.57-5.6-.01-9.52-3.91-8.65-10Z"/>
      <path class="cls-2" d="M422.28,177.45l21.68-151.05c.96-6.65,4.59-10.52,11.59-10.5l39.76.1c51.8.14,82.99,38.48,76.11,86.43-7.08,49.33-49.13,86.66-100.93,86.52l-38.36-.1c-7.56-.02-10.72-5.3-9.85-11.39ZM473.43,168.43c39.48.1,71.02-28.37,76.43-66.07,5.21-36.31-18.01-65.76-57.49-65.86l-28.56-.08-18.94,131.93,28.56.08Z"/>
      <path class="cls-2" d="M571.2,157.6c5.33-37.14,50.48-55.04,85.48-54.95,7,.02,11.12,4.47,10.17,11.12l-7.28,50.72c-.76,5.27.21,8.32,4.69,8.33,7,.02,17.03-11.32,24.86-21.01l3.4-4.15c2.4-3.04,5.63-6.08,10.96-6.07,6.16.02,10,4.46,9.13,10.56-.56,3.88-3.27,7.2-4.59,8.58l-5.04,5.81c-5.04,5.81-8.35,9.41-14.35,14.1-12.95,10.23-21.55,11.59-29.67,11.57-11.2-.03-17.52-4.76-19.41-13.08-12.39,10.23-24.27,12.97-34.35,12.94-24.36-.06-37.25-11.74-33.99-34.47ZM642.67,143.64l3.06-21.34c-18.48-.05-50.87,10.96-54.17,33.96-1.47,10.26,4.65,16.37,16.41,16.4,15.12.04,32.27-12.12,34.7-29.02Z"/>
      <path class="cls-2" d="M716.59,252.52c3.34-23.28,26.16-45.68,41.67-58.12l2.82-19.68c-8.91,9.4-23.27,17.68-38.95,17.64-26.88-.07-29.53-18.65-27.51-32.79l6.72-46.84c.88-6.1,6.19-9.97,11.23-9.95,5.6.01,9.52,3.91,8.65,10l-6.64,46.29c-1.07,7.48,2.01,13.31,10.97,13.34,19.04.05,33.87-15.44,40.69-33.72l3.7-25.78c.88-6.1,6.19-9.97,11.23-9.95,5.6.01,9.52,3.91,8.65,10l-9.23,64.3c5.48-4.98,14.19-12.99,24.06-25.17l3.4-4.15c2.4-3.04,5.64-6.08,10.96-6.07,6.16.02,10,4.46,9.13,10.56-.56,3.88-3.27,7.2-4.59,8.58l-5.04,5.81c-14.43,16.6-32.42,30.69-41.81,37.6l-6.76,47.12c-2.82,19.68-14.49,32.68-31.29,32.64-18.2-.05-24.41-15.31-22.06-31.67ZM749.99,252.06l4.46-31.04c-9.03,8.29-16.06,20.2-17.69,31.56-.72,4.99-1.19,12.2,4.69,12.21,6.44.02,7.79-7.47,8.55-12.73Z"/>
      <path class="cls-2" d="M831.21,170.2c1.55-10.81,13.94-21.04,26.82-21,1.68,0,3.88.29,5.52.57-6.12-6.12-15.77-11.13-19.17-12.8-5.11,6.36-10.19,12.45-14.19,16.88l-3.36,3.87c-2.04,2.49-5.8,5.25-10.28,5.24-6.16-.02-10-4.46-9.13-10.56.36-2.5,1.52-4.71,2.88-6.37l9.47-11.34,5.75-6.92c-7.6-5.57-10.85-14.17-9.62-22.76,1.71-11.92,11.82-23.81,27.5-23.77,13.72.04,22.45,11.43,20.58,24.45-.76,5.27-3.51,10.8-7.31,15.78,2.28,1.67,5.12,3.34,7.96,5.01,11.85,7.24,25.21,15.59,25.95,31.95,4.84-2.48,9.08-6.63,14.07-12.16,2.32-2.49,5.64-4.14,9.28-4.13,6.16.02,10,4.46,9.13,10.56-.28,1.94-.8,3.6-1.84,4.99-10.63,13.56-22.54,20.46-37.9,22.08-6.75,8.02-17.55,12.99-27.91,12.96-14.28-.04-26.72-5.06-24.22-22.52ZM843.87,105.35c.36-2.5-.68-4.99-3.48-5-3.08,0-4.56,2.48-4.84,4.42-.48,3.33,2.24,5.83,4.56,7.22,1.92-1.66,3.44-4.43,3.75-6.64ZM867.72,167.52c-1.44-1.67-3.72-3.34-7.64-3.35-3.08,0-8.04,1.37-8.56,4.97-.44,3.05,2.76,4.17,5.28,4.17,4.76.01,8.68-1.92,10.92-5.79Z"/>
    </g>
  </g>
  <g id="_レイヤー_1のコピー_2" data-name="レイヤー 1のコピー 2">
    <g>
      <path class="cls-1" d="M310.41,170.72c.24-1.66.88-4.16,1.52-6.65,5.82-19.12,12.53-38.51,20.4-56.23l-17.08-.04c-5.32-.01-9.28-3.63-8.41-9.73.88-6.1,5.87-9.69,11.19-9.68l23.52.06c9.63-18.27,20.29-35.99,33.56-54.26-2.56.27-5.12.54-7.36.54-10.92-.03-20-3.1-28.45-6.73-7.92-3.35-16.24-5.87-22.68-5.88s-11.28,2.47-13.03,8.84c-1.68,5.82-6.07,9.13-11.39,9.12-5.6-.01-9.56-3.63-8.65-10,2.27-15.8,16.06-27.96,33.42-27.92,9.52.03,18.32,3.1,27.08,6.45,8.48,3.35,17.32,6.15,26.56,6.17,8.12.02,19.24-3.28,25.31-8.53,2.88-2.49,5.88-3.87,9.24-3.86,5.6.01,9.56,3.63,8.65,10-.32,2.22-1.16,4.16-2.2,5.54-19.02,23.24-35.16,45.93-48.78,70.57l15.4.04c5.32.01,9.28,3.63,8.41,9.73-.88,6.1-5.87,9.69-11.19,9.67l-22.4-.06c-8.94,19.38-16.45,40.44-22.67,64.27-1.36,5.54-6.27,8.58-11.31,8.57-5.6-.01-9.52-3.91-8.65-10Z"/>
      <path class="cls-1" d="M412.28,166.82l21.68-151.05c.96-6.65,4.59-10.52,11.59-10.5l39.76.1c51.8.14,82.99,38.48,76.11,86.43-7.08,49.33-49.13,86.66-100.93,86.52l-38.36-.1c-7.56-.02-10.72-5.3-9.85-11.39ZM463.43,157.81c39.48.1,71.02-28.37,76.43-66.07,5.21-36.31-18.01-65.76-57.49-65.86l-28.56-.08-18.94,131.93,28.56.08Z"/>
      <path class="cls-1" d="M561.2,146.97c5.33-37.14,50.48-55.04,85.48-54.95,7,.02,11.12,4.47,10.17,11.12l-7.28,50.72c-.76,5.27.21,8.32,4.69,8.33,7,.02,17.03-11.32,24.86-21.01l3.4-4.15c2.4-3.04,5.63-6.08,10.96-6.07,6.16.02,10,4.46,9.13,10.56-.56,3.88-3.27,7.2-4.59,8.58l-5.04,5.81c-5.04,5.81-8.35,9.41-14.35,14.1-12.95,10.23-21.55,11.59-29.67,11.57-11.2-.03-17.52-4.76-19.41-13.08-12.39,10.23-24.27,12.97-34.35,12.94-24.36-.06-37.25-11.74-33.99-34.47ZM632.67,133.02l3.06-21.34c-18.48-.05-50.87,10.96-54.17,33.96-1.47,10.26,4.65,16.37,16.41,16.4,15.12.04,32.27-12.12,34.7-29.02Z"/>
      <path class="cls-1" d="M706.59,241.9c3.34-23.28,26.16-45.68,41.67-58.12l2.82-19.68c-8.91,9.4-23.27,17.68-38.95,17.64-26.88-.07-29.53-18.65-27.51-32.79l6.72-46.84c.88-6.1,6.19-9.97,11.23-9.95,5.6.01,9.52,3.91,8.65,10l-6.64,46.29c-1.07,7.48,2.01,13.31,10.97,13.34,19.04.05,33.87-15.44,40.69-33.72l3.7-25.78c.88-6.1,6.19-9.97,11.23-9.95,5.6.01,9.52,3.91,8.65,10l-9.23,64.3c5.48-4.98,14.19-12.99,24.06-25.17l3.4-4.15c2.4-3.04,5.64-6.08,10.96-6.07,6.16.02,10,4.46,9.13,10.56-.56,3.88-3.27,7.2-4.59,8.58l-5.04,5.81c-14.43,16.6-32.42,30.69-41.81,37.6l-6.76,47.12c-2.82,19.68-14.49,32.68-31.29,32.64-18.2-.05-24.41-15.31-22.06-31.67ZM739.99,241.43l4.46-31.04c-9.03,8.29-16.06,20.2-17.69,31.56-.72,4.99-1.19,12.2,4.69,12.21,6.44.02,7.79-7.47,8.55-12.73Z"/>
      <path class="cls-1" d="M821.21,159.58c1.55-10.81,13.94-21.04,26.82-21,1.68,0,3.88.29,5.52.57-6.12-6.12-15.77-11.13-19.17-12.8-5.11,6.36-10.19,12.45-14.19,16.88l-3.36,3.87c-2.04,2.49-5.8,5.25-10.28,5.24-6.16-.02-10-4.46-9.13-10.56.36-2.5,1.52-4.71,2.88-6.37l9.47-11.34,5.75-6.92c-7.6-5.57-10.85-14.17-9.62-22.76,1.71-11.92,11.82-23.81,27.5-23.77,13.72.04,22.45,11.43,20.58,24.45-.76,5.27-3.51,10.8-7.31,15.78,2.28,1.67,5.12,3.34,7.96,5.01,11.85,7.24,25.21,15.59,25.95,31.95,4.84-2.48,9.08-6.63,14.07-12.16,2.32-2.49,5.64-4.14,9.28-4.13,6.16.02,10,4.46,9.13,10.56-.28,1.94-.8,3.6-1.84,4.99-10.63,13.56-22.54,20.46-37.9,22.08-6.75,8.02-17.55,12.99-27.91,12.96-14.28-.04-26.72-5.06-24.22-22.52ZM833.87,94.73c.36-2.5-.68-4.99-3.48-5-3.08,0-4.56,2.48-4.84,4.42-.48,3.33,2.24,5.83,4.56,7.22,1.92-1.66,3.44-4.43,3.75-6.64ZM857.72,156.9c-1.44-1.67-3.72-3.34-7.64-3.35-3.08,0-8.04,1.37-8.56,4.97-.44,3.05,2.76,4.17,5.28,4.17,4.76.01,8.68-1.92,10.92-5.79Z"/>
    </g>
  </g>
</svg>