<?xml version="1.0" encoding="UTF-8"?>
<svg xmlns="http://www.w3.org/2000/svg" viewBox="0 0 1200 200">
  <defs>
    <style>
      .cls-1 {
        fill: #f38600;
        stroke: #fff;
        stroke-width: 2px;
      }

      .cls-1, .cls-2 {
        stroke-miterlimit: 10;
      }

      .cls-2 {
        fill: #fff;
        stroke: #000333;
        stroke-width: .75px;
      }
    </style>
  </defs>
  <g id="_レイヤー_1のコピー" data-name="レイヤー 1のコピー">
    <g>
      <path class="cls-2" d="M488.68,181.2l20.77-144.68-49.84-.13c-6.44-.02-9.68-4.74-8.89-10.28.8-5.54,5.39-10.24,11.83-10.23l120.68.32c6.44.02,9.68,4.74,8.89,10.28-.8,5.54-5.39,10.25-11.83,10.23l-49.56-.13-20.77,144.68c-.95,6.65-6.27,10.52-12.15,10.5-5.88-.01-10.08-3.91-9.13-10.56Z"/>
      <path class="cls-2" d="M551.63,153.36c2.98-20.79,19.92-50.96,44.56-50.9,15.68.04,23.37,10.88,21.42,24.46-2.67,18.57-20.74,31.28-45.41,35.37,1.88,6.38,7.77,10.28,17.29,10.3,12.88.03,23.59-8.26,33.82-20.98l3.4-4.15c2.4-3.04,5.64-6.08,10.96-6.07,6.16.02,10,4.46,9.13,10.56-.56,3.88-3.59,7.48-4.59,8.58l-5.04,5.81c-14.11,16.32-31.98,25.7-50.46,25.65-25.76-.07-38.45-15.07-35.07-38.63ZM597.45,126.87c.4-2.77-1.52-4.99-4.04-5-8.96-.02-15.95,11.6-19.5,22.68,13.48-4.12,22.63-11.31,23.55-17.68Z"/>
      <path class="cls-2" d="M625.71,157.72c5.33-37.14,50.48-55.04,85.48-54.95,7,.02,11.12,4.47,10.17,11.12l-7.28,50.72c-.76,5.27.21,8.32,4.69,8.33,7,.02,17.03-11.32,24.86-21.01l3.4-4.15c2.4-3.04,5.63-6.08,10.96-6.07,6.16.02,10,4.46,9.13,10.56-.56,3.88-3.27,7.2-4.59,8.58l-5.04,5.81c-5.04,5.81-8.35,9.41-14.35,14.1-12.95,10.23-21.55,11.59-29.67,11.57-11.2-.03-17.52-4.76-19.41-13.08-12.39,10.23-24.27,12.97-34.35,12.94-24.36-.06-37.25-11.74-33.99-34.47ZM697.18,143.76l3.06-21.34c-18.48-.05-50.87,10.96-54.17,33.96-1.47,10.26,4.65,16.37,16.41,16.4,15.12.04,32.27-12.12,34.7-29.02Z"/>
    </g>
  </g>
  <g id="_レイヤー_1のコピー_2" data-name="レイヤー 1のコピー 2">
    <g>
      <path class="cls-1" d="M478.68,170.58l20.77-144.68-49.84-.13c-6.44-.02-9.68-4.74-8.89-10.28.8-5.54,5.39-10.24,11.83-10.23l120.68.32c6.44.02,9.68,4.74,8.89,10.28-.8,5.54-5.39,10.25-11.83,10.23l-49.56-.13-20.77,144.68c-.95,6.65-6.27,10.52-12.15,10.5-5.88-.01-10.08-3.91-9.13-10.56Z"/>
      <path class="cls-1" d="M541.63,142.74c2.98-20.79,19.92-50.96,44.56-50.9,15.68.04,23.37,10.88,21.42,24.46-2.67,18.57-20.74,31.28-45.41,35.37,1.88,6.38,7.77,10.28,17.29,10.3,12.88.03,23.59-8.26,33.82-20.98l3.4-4.15c2.4-3.04,5.64-6.08,10.96-6.07,6.16.02,10,4.46,9.13,10.56-.56,3.88-3.59,7.48-4.59,8.58l-5.04,5.81c-14.11,16.32-31.98,25.7-50.46,25.65-25.76-.07-38.45-15.07-35.07-38.63ZM587.45,116.24c.4-2.77-1.52-4.99-4.04-5-8.96-.02-15.95,11.6-19.5,22.68,13.48-4.12,22.63-11.31,23.55-17.68Z"/>
      <path class="cls-1" d="M615.71,147.09c5.33-37.14,50.48-55.04,85.48-54.95,7,.02,11.12,4.47,10.17,11.12l-7.28,50.72c-.76,5.27.21,8.32,4.69,8.33,7,.02,17.03-11.32,24.86-21.01l3.4-4.15c2.4-3.04,5.63-6.08,10.96-6.07,6.16.02,10,4.46,9.13,10.56-.56,3.88-3.27,7.2-4.59,8.58l-5.04,5.81c-5.04,5.81-8.35,9.41-14.35,14.1-12.95,10.23-21.55,11.59-29.67,11.57-11.2-.03-17.52-4.76-19.41-13.08-12.39,10.23-24.27,12.97-34.35,12.94-24.36-.06-37.25-11.74-33.99-34.47ZM687.18,133.14l3.06-21.34c-18.48-.05-50.87,10.96-54.17,33.96-1.47,10.26,4.65,16.37,16.41,16.4,15.12.04,32.27-12.12,34.7-29.02Z"/>
    </g>
  </g>
</svg>