<?xml version="1.0" encoding="UTF-8"?>
<svg xmlns="http://www.w3.org/2000/svg" viewBox="0 0 1200 290">
  <defs>
    <style>
      .cls-1 {
        fill: #2a8c2e;
        stroke: #fff;
        stroke-width: 2px;
      }

      .cls-1, .cls-2 {
        stroke-miterlimit: 10;
      }

      .cls-2 {
        fill: #fff;
        stroke: #000333;
        stroke-width: .75px;
      }
    </style>
  </defs>
  <g id="_レイヤー_1のコピー" data-name="レイヤー 1のコピー">
    <g>
      <path class="cls-2" d="M492.13,181.1l20.77-144.68-49.84-.13c-6.44-.02-9.68-4.74-8.89-10.28s5.39-10.24,11.83-10.23l120.68.32c6.44.02,9.68,4.74,8.89,10.28-.8,5.54-5.39,10.24-11.83,10.23l-49.56-.13-20.77,144.68c-.95,6.65-6.27,10.52-12.15,10.5-5.88-.02-10.08-3.91-9.13-10.56Z"/>
      <path class="cls-2" d="M567.33,147.2c3.7-25.77,25.77-44.85,52.64-44.78,19.32.05,33.29,10.07,38.1,25.33,5.12-2.48,10.04-5.52,15.31-9.11,1.88-1.38,4.24-2.21,7.04-2.2,6.16.02,10,4.46,9.13,10.56-.48,3.33-2.35,6.65-6.03,8.86-9.52,5.8-17.11,9.94-23.91,12.42-4.22,25.5-25.89,43.74-52.49,43.67-26.88-.07-43.49-18.97-39.79-44.74ZM638.21,152.93h-4.2c-23.8-.07-36.65-12.03-34.82-24.78l.16-1.11c-6.24,4.42-10.63,11.62-11.86,20.21-2.19,15.24,6.94,25.8,22.34,25.84,13.44.04,24.39-7.98,28.38-20.17ZM638.12,134.07c-2.28-5.55-7.85-11.67-15.13-11.68-2.52,0-4.44,1.65-4.76,3.87-.83,5.82,9.53,7.79,18.49,7.81h1.4Z"/>
      <path class="cls-2" d="M692.99,273.96l20.29-141.35-3.72,2.49c-2.48,1.66-5.12,2.48-7.64,2.48-6.16-.02-10-4.46-9.13-10.56.88-6.1,6.07-9.13,8.19-10.24l7.6-4.14c2.44-1.38,7.64-4.42,9.83-6.07,2.84-2.21,5.6-3.87,8.96-3.86,5.6.01,9.52,3.91,8.65,10l-1.87,13.03c10.43-14.11,24.58-22.95,39.42-22.91,19.88.05,25.29,13.1,22.82,30.28l-4.54,31.6c-.76,5.27.49,8.32,4.69,8.33,7,.02,17.03-11.32,24.86-21.01l3.4-4.15c2.4-3.04,5.63-6.08,10.96-6.07,6.16.02,10,4.46,9.13,10.56-.56,3.88-3.59,7.48-4.59,8.58-7.07,8.3-9.07,10.51-11.99,13.28-11.67,11.06-22.23,18.24-37.07,18.2-15.4-.04-21.93-9.21-19.66-25l4.81-33.54c1.07-7.48-1.41-11.65-7.57-11.67-12.6-.03-37.86,25.69-40.53,44.26l-15.44,107.54c-.88,6.1-5.91,9.97-11.51,9.95-5.04-.01-9.24-3.91-8.37-10Z"/>
    </g>
  </g>
  <g id="_レイヤー_1のコピー_2" data-name="レイヤー 1のコピー 2">
    <g>
      <path class="cls-1" d="M482.13,170.48l20.77-144.68-49.84-.13c-6.44-.02-9.68-4.74-8.89-10.28s5.39-10.24,11.83-10.23l120.68.32c6.44.02,9.68,4.74,8.89,10.28-.8,5.54-5.39,10.24-11.83,10.23l-49.56-.13-20.77,144.68c-.95,6.65-6.27,10.52-12.15,10.5-5.88-.02-10.08-3.91-9.13-10.56Z"/>
      <path class="cls-1" d="M557.33,136.57c3.7-25.77,25.77-44.85,52.64-44.78,19.32.05,33.29,10.07,38.1,25.33,5.12-2.48,10.04-5.52,15.31-9.11,1.88-1.38,4.24-2.21,7.04-2.2,6.16.02,10,4.46,9.13,10.56-.48,3.33-2.35,6.65-6.03,8.86-9.52,5.8-17.11,9.94-23.91,12.42-4.22,25.5-25.89,43.74-52.49,43.67-26.88-.07-43.49-18.97-39.79-44.74ZM628.21,142.3h-4.2c-23.8-.07-36.65-12.03-34.82-24.78l.16-1.11c-6.24,4.42-10.63,11.62-11.86,20.21-2.19,15.24,6.94,25.8,22.34,25.84,13.44.04,24.39-7.98,28.38-20.17ZM628.12,123.45c-2.28-5.55-7.85-11.67-15.13-11.68-2.52,0-4.44,1.65-4.76,3.87-.83,5.82,9.53,7.79,18.49,7.81h1.4Z"/>
      <path class="cls-1" d="M682.99,263.33l20.29-141.35-3.72,2.49c-2.48,1.66-5.12,2.48-7.64,2.48-6.16-.02-10-4.46-9.13-10.56.88-6.1,6.07-9.13,8.19-10.24l7.6-4.14c2.44-1.38,7.64-4.42,9.83-6.07,2.84-2.21,5.6-3.87,8.96-3.86,5.6.01,9.52,3.91,8.65,10l-1.87,13.03c10.43-14.11,24.58-22.95,39.42-22.91,19.88.05,25.29,13.1,22.82,30.28l-4.54,31.6c-.76,5.27.49,8.32,4.69,8.33,7,.02,17.03-11.32,24.86-21.01l3.4-4.15c2.4-3.04,5.63-6.08,10.96-6.07,6.16.02,10,4.46,9.13,10.56-.56,3.88-3.59,7.48-4.59,8.58-7.07,8.3-9.07,10.51-11.99,13.28-11.67,11.06-22.23,18.24-37.07,18.2-15.4-.04-21.93-9.21-19.66-25l4.81-33.54c1.07-7.48-1.41-11.65-7.57-11.67-12.6-.03-37.86,25.69-40.53,44.26l-15.44,107.54c-.88,6.1-5.91,9.97-11.51,9.95-5.04-.01-9.24-3.91-8.37-10Z"/>
    </g>
  </g>
</svg>