<?xml version="1.0" encoding="utf-8"?>
<!-- Generator: Adobe Illustrator 28.2.0, SVG Export Plug-In . SVG Version: 6.00 Build 0)  -->
<svg version="1.1" xmlns="http://www.w3.org/2000/svg" xmlns:xlink="http://www.w3.org/1999/xlink" x="0px" y="0px"
	 viewBox="0 0 640 120" style="enable-background:new 0 0 640 120;" xml:space="preserve">
<style type="text/css">
	.st0{fill:#E57C02;}
</style>
<g id="bg">
</g>
<g id="text">
	<g>
		<g>
			<path class="st0" d="M97.53,0c-3.9,0-7.06,3.16-7.06,7.06v24.83c0,3.9-3.16,7.06-7.06,7.06H21.17c-3.9,0-7.06-3.16-7.06-7.06
				V7.06c0-3.9-3.16-7.06-7.06-7.06h0C3.16,0,0,3.16,0,7.06v105.89c0,3.9,3.16,7.06,7.06,7.06h0c3.9,0,7.06-3.16,7.06-7.06V60.42
				c0-3.9,3.16-7.06,7.06-7.06h62.25c3.9,0,7.06,3.16,7.06,7.06v52.52c0,3.9,3.16,7.06,7.06,7.06s7.06-3.16,7.06-7.06V7.06
				C104.58,3.16,101.42,0,97.53,0z M148.63,46.15c-3.9,0-7.06,3.16-7.06,7.06v59.73c0,3.9,3.16,7.06,7.06,7.06s7.06-3.16,7.06-7.06
				V53.21C155.68,49.31,152.52,46.15,148.63,46.15z M148.63,26.54c-3.9,0-7.06,3.16-7.06,7.06v0.31c0,3.9,3.16,7.06,7.06,7.06
				s7.06-3.16,7.06-7.06v-0.31C155.68,29.7,152.52,26.54,148.63,26.54z M250.67,31.44h-15.24c-3.9,0-7.06-3.16-7.06-7.06V7.06
				c0-3.9-3.16-7.06-7.06-7.06s-7.06,3.16-7.06,7.06v17.33c0,3.9-3.16,7.06-7.06,7.06h-14.96c-3.9,0-7.06,3.16-7.06,7.06v0.31
				c0,3.9,3.16,7.06,7.06,7.06h14.96c3.9,0,7.06,3.16,7.06,7.06v60.02c0,3.9,3.16,7.06,7.06,7.06s7.06-3.16,7.06-7.06V52.92
				c0-3.9,3.16-7.06,7.06-7.06h15.24c3.9,0,7.06-3.16,7.06-7.06V38.5C257.72,34.6,254.56,31.44,250.67,31.44z M303.1,45.87
				c-20.04,0-36.13,16.73-36.13,37.21S283.06,120,303.1,120c20.04,0,36.41-16.44,36.41-36.92c0-10.1-3.67-19.33-10.73-26.25
				C322.01,49.62,312.98,45.87,303.1,45.87z M303.1,105.58c-12.14,0-22.01-10.1-22.01-22.5c0-12.69,9.88-22.79,22.01-22.79
				c5.93,0,11.57,2.31,15.81,6.63c4.23,4.33,6.49,10.1,6.49,16.15C325.4,95.48,315.52,105.58,303.1,105.58z M414.25,31.44h-15.24
				c-3.9,0-7.06-3.16-7.06-7.06V7.06c0-3.9-3.16-7.06-7.06-7.06s-7.06,3.16-7.06,7.06v17.33c0,3.9-3.16,7.06-7.06,7.06h-14.96
				c-3.9,0-7.06,3.16-7.06,7.06v0.31c0,3.9,3.16,7.06,7.06,7.06h14.96c3.9,0,7.06,3.16,7.06,7.06v60.02c0,3.9,3.16,7.06,7.06,7.06
				s7.06-3.16,7.06-7.06V52.92c0-3.9,3.16-7.06,7.06-7.06h15.24c3.9,0,7.06-3.16,7.06-7.06V38.5
				C421.3,34.6,418.15,31.44,414.25,31.44z M467.61,45.87c-20.04,0-36.13,16.73-36.13,37.21S447.57,120,467.61,120
				s36.41-16.44,36.41-36.92c0-10.1-3.67-19.33-10.73-26.25C486.52,49.62,477.49,45.87,467.61,45.87z M467.61,105.58
				c-12.14,0-22.01-10.1-22.01-22.5c0-12.69,9.88-22.79,22.01-22.79c5.93,0,11.57,2.31,15.81,6.63c4.23,4.33,6.49,10.1,6.49,16.15
				C489.91,95.48,480.03,105.58,467.61,105.58z M583.65,46.94c-15.82,4-27.47,18.71-27.47,36.14c0,17.44,11.66,31.95,27.5,35.87
				c4.4,1.09,8.63-2.35,8.63-6.88v-0.32c0-3.27-2.27-6.04-5.43-6.87c-9.52-2.48-16.58-11.32-16.58-21.81
				c0-10.73,7.06-19.61,16.59-22.09c3.16-0.83,5.43-3.59,5.43-6.86v-0.31C592.3,49.27,588.05,45.82,583.65,46.94z M542.91,0
				L542.91,0c-3.9,0-7.06,3.16-7.06,7.06v105.89c0,3.9,3.16,7.06,7.06,7.06h0c3.9,0,7.06-3.16,7.06-7.06V7.06
				C549.97,3.16,546.81,0,542.91,0z M632.94,26.54L632.94,26.54c-3.9,0-7.06,3.16-7.06,7.06v0.31c0,3.9,3.16,7.06,7.06,7.06h0
				c3.9,0,7.06-3.16,7.06-7.06v-0.31C640,29.7,636.84,26.54,632.94,26.54z M632.94,46.15L632.94,46.15c-3.9,0-7.06,3.16-7.06,7.06
				v59.73c0,3.9,3.16,7.06,7.06,7.06h0c3.9,0,7.06-3.16,7.06-7.06V53.21C640,49.31,636.84,46.15,632.94,46.15z"/>
		</g>
	</g>
</g>
<g id="img">
</g>
</svg>
