<?xml version="1.0" encoding="UTF-8"?>
<svg id="text" xmlns="http://www.w3.org/2000/svg" viewBox="0 0 160 160">
  <defs>
    <style>
      .cls-1 {
        fill: #fff;
      }

      .cls-1, .cls-2 {
        stroke-width: 0px;
      }

      .cls-2 {
        fill: #e57c02;
      }
    </style>
  </defs>
  <path class="cls-2" d="M80,0L.04,78.31c-.01.56-.04,1.12-.04,1.69,0,44.18,35.82,80,80,80s80-35.82,80-80S124.18,0,80,0Z"/>
  <path class="cls-1" d="M104,40c-2.11,0-3.82,1.71-3.82,3.82v28.45c0,2.11-1.71,3.82-3.82,3.82h-32.72c-2.11,0-3.82-1.71-3.82-3.82v-28.45c0-2.11-1.71-3.82-3.82-3.82s-3.82,1.71-3.82,3.82v72.36c0,2.11,1.71,3.82,3.82,3.82s3.82-1.71,3.82-3.82v-28.45c0-2.11,1.71-3.82,3.82-3.82h32.72c2.11,0,3.82,1.71,3.82,3.82v28.45c0,2.11,1.71,3.82,3.82,3.82s3.82-1.71,3.82-3.82V43.82c0-2.11-1.71-3.82-3.82-3.82Z"/>
</svg>